<svg xmlns="http://www.w3.org/2000/svg" xmlns:svg="http://www.w3.org/2000/svg" id="svg1" width="438" height="62" version="1.1" viewBox="0 0 438 62"><path id="path1-8" fill="#2e3436" d="M 7.9999996,24 C 6.894531,24 6,24.894531 6,26 6,27.105469 6.894531,28 7.9999996,28 9.101562,28 10,27.105469 10,26 10,24.894531 9.101562,24 7.9999996,24 Z m 0,6 C 6.894531,30 6,30.894531 6,32 6,33.105469 6.894531,34 7.9999996,34 9.101562,34 10,33.105469 10,32 10,30.894531 9.101562,30 7.9999996,30 Z m 0,6 C 6.894531,36 6,36.894531 6,38 6,39.105469 6.894531,40 7.9999996,40 9.101562,40 10,39.105469 10,38 10,36.894531 9.101562,36 7.9999996,36 Z m 0,0" style="fill:#6272a4;fill-opacity:1"/><g id="layer4"><path id="path1-89" fill="#222" d="m 153.75,1 c -0.46485,0 -0.90918,0.1845707 -1.2373,0.5126955 -0.6836,0.6835935 -0.6836,1.791014 0,2.4746075 l 7.51269,7.512693 -7.51269,7.512692 c -0.6836,0.683594 -0.6836,1.791014 0,2.474608 0.68358,0.683593 1.79102,0.683593 2.4746,0 l 7.5127,-7.512693 7.51269,7.512693 c 0.68359,0.683593 1.79102,0.683593 2.47461,0 0.6836,-0.683594 0.6836,-1.791014 0,-2.474608 l -7.5127,-7.512692 7.5127,-7.512693 c 0.6836,-0.6835935 0.6836,-1.791014 0,-2.4746075 C 172.15917,1.1845707 171.71483,1 171.24999,1 c -0.46485,0 -0.90917,0.1845707 -1.2373,0.5126955 L 162.5,9.0253882 154.9873,1.5126955 C 154.65918,1.1845707 154.21484,1 153.75,1 Z m 0,0" style="fill:#6272a4;fill-opacity:1;stroke-width:1.75"/><path id="path5" fill="#222" d="m 177.75,1 c -0.46485,0 -0.90918,0.1845707 -1.2373,0.5126955 -0.6836,0.6835935 -0.6836,1.791014 0,2.4746075 l 7.51269,7.512693 -7.51269,7.512692 c -0.6836,0.683594 -0.6836,1.791014 0,2.474608 0.68358,0.683593 1.79102,0.683593 2.4746,0 l 7.5127,-7.512693 7.51269,7.512693 c 0.68359,0.683593 1.79102,0.683593 2.47461,0 0.6836,-0.683594 0.6836,-1.791014 0,-2.474608 l -7.5127,-7.512692 7.5127,-7.512693 c 0.6836,-0.6835935 0.6836,-1.791014 0,-2.4746075 C 196.15917,1.1845707 195.71483,1 195.24999,1 c -0.46485,0 -0.90917,0.1845707 -1.2373,0.5126955 L 186.5,9.0253882 178.9873,1.5126955 C 178.65918,1.1845707 178.21484,1 177.75,1 Z m 0,0" style="fill:#6272a4;fill-opacity:1;stroke-width:1.75"/><path id="path6" fill="#222" d="m 201.75,1 c -0.46485,0 -0.90918,0.1845707 -1.2373,0.5126955 -0.6836,0.6835935 -0.6836,1.791014 0,2.4746075 l 7.51269,7.512693 -7.51269,7.512692 c -0.6836,0.683594 -0.6836,1.791014 0,2.474608 0.68358,0.683593 1.79102,0.683593 2.4746,0 l 7.5127,-7.512693 7.51269,7.512693 c 0.68359,0.683593 1.79102,0.683593 2.47461,0 0.6836,-0.683594 0.6836,-1.791014 0,-2.474608 l -7.5127,-7.512692 7.5127,-7.512693 c 0.6836,-0.6835935 0.6836,-1.791014 0,-2.4746075 C 220.15917,1.1845707 219.71483,1 219.24999,1 c -0.46485,0 -0.90917,0.1845707 -1.2373,0.5126955 L 210.5,9.0253882 202.9873,1.5126955 C 202.65918,1.1845707 202.21484,1 201.75,1 Z m 0,0" style="fill:#6272a4;fill-opacity:1;stroke-width:1.75"/><path id="path1-26" fill="#2e3436" d="m 49,0 c -0.554688,0 -1,0.4479168 -1,0.9999996 0,0.552084 0.445312,1.0000008 1,1.0000008 0.552084,0 1,-0.4479168 1,-1.0000008 C 50,0.4479168 49.552084,0 49,0 Z m 4,0 c -0.554688,0 -1,0.4479168 -1,0.9999996 0,0.552084 0.445312,1.0000008 1,1.0000008 0.552083,0 1,-0.4479168 1,-1.0000008 C 54,0.4479168 53.552083,0 53,0 Z m -4,4.0000002 c -0.554688,0 -1,0.4479168 -1,1.0000008 0,0.5520828 0.445312,0.9999996 1,0.9999996 0.552084,0 1,-0.4479168 1,-0.9999996 0,-0.552084 -0.447916,-1.0000008 -1,-1.0000008 z m 4,0 c -0.554688,0 -1,0.4479168 -1,1.0000008 0,0.5520828 0.445312,0.9999996 1,0.9999996 0.552083,0 1,-0.4479168 1,-0.9999996 C 54,4.447917 53.552083,4.0000002 53,4.0000002 Z M 49,8.000001 c -0.554688,0 -1,0.4479168 -1,0.9999996 C 48,9.5520834 48.445312,10 49,10 49.552084,10 50,9.5520834 50,9.0000006 50,8.4479178 49.552084,8.000001 49,8.000001 Z m 4,0 c -0.554688,0 -1,0.4479168 -1,0.9999996 C 52,9.5520834 52.445312,10 53,10 53.552083,10 54,9.5520834 54,9.0000006 54,8.4479178 53.552083,8.000001 53,8.000001 Z m 0,0" style="fill:#6272a4;fill-opacity:1;stroke-width:.666667"/></g><g id="layer3"><rect style="font-variation-settings:'opsz' 14,'wght' 460;display:none;opacity:.5;fill:#a46262;fill-opacity:1;stroke-width:.944882;stroke-linecap:round;stroke-linejoin:round" id="rect4" width="16" height="16" x="422" y="0"/><path id="path4" fill="#222" fill-rule="evenodd" d="m 429.01016,11.789841 -5.6,-5.5999965 c -0.54688,-0.5468748 -0.54688,-1.4328118 0,-1.9796858 0.54687,-0.546875 1.43281,-0.546875 1.97968,0 L 430,8.8203125 434.61015,4.2101587 c 0.54687,-0.546875 1.43282,-0.546875 1.97969,0 0.54688,0.546874 0.54688,1.432811 0,1.9796858 l -5.6,5.5999965 c -0.54687,0.546875 -1.43282,0.546875 -1.97968,0 z m 0,0" style="fill:#6272a4;fill-opacity:1;stroke-width:1.4"/><path id="path1-5" fill="#222" fill-rule="evenodd" d="m 411.01016,4.2101585 -5.6,5.5999967 c -0.54688,0.5468748 -0.54688,1.4328118 0,1.9796858 0.54687,0.546875 1.43281,0.546875 1.97968,0 L 412,7.1796872 l 4.61015,4.6101538 c 0.54687,0.546875 1.43282,0.546875 1.97969,0 0.54688,-0.546874 0.54688,-1.432811 0,-1.9796858 l -5.6,-5.5999967 c -0.54687,-0.5468747 -1.43282,-0.5468747 -1.97968,0 z m 0,0" style="fill:#6272a4;fill-opacity:1;stroke-width:1.4"/><path id="path1-0" fill="#2e3436" d="m 388.00528,2.002636 h 1.49934 0.0468 c 0.38068,0.017572 0.76722,0.193274 1.03079,0.4685441 l 3.42037,3.4203716 3.46723,-3.4203716 c 0.39831,-0.3455517 0.66773,-0.4568312 1.03085,-0.4685441 H 400 v 1.499341 c 0,0.4275461 -0.0528,0.8258085 -0.37483,1.1245057 l -3.42037,3.4203713 3.37351,3.373518 C 399.85944,11.701498 400,12.09976 400,12.498023 v 1.499341 h -1.49934 c -0.39827,0 -0.79652,-0.140563 -1.07765,-0.42169 l -3.42037,-3.420371 -3.42037,3.420371 c -0.28113,0.281127 -0.6794,0.42169 -1.07765,0.42169 h -1.49934 v -1.499341 c 0,-0.398263 0.14048,-0.796525 0.42169,-1.077651 l 3.42037,-3.373518 -3.42037,-3.4203713 C 388.11069,4.3336434 387.97013,3.9236666 388.00528,3.501977 Z m 0,0" style="fill:#6272a4;fill-opacity:1;stroke-width:1.49934"/></g><g id="layer6"><path id="path1-19" fill="#2e3436" d="m 67,0 c -1.52002,0 -2.75,1.22998 -2.75,2.75 0,1.52002 1.22998,2.75 2.75,2.75 1.514648,0 2.75,-1.22998 2.75,-2.75 C 69.75,1.22998 68.514648,0 67,0 Z m 0,8.25 c -1.52002,0 -2.75,1.22998 -2.75,2.75 0,1.52002 1.22998,2.75 2.75,2.75 1.514648,0 2.75,-1.22998 2.75,-2.75 0,-1.52002 -1.235352,-2.75 -2.75,-2.75 z m 0,8.25 c -1.52002,0 -2.75,1.22998 -2.75,2.75 0,1.52002 1.22998,2.75 2.75,2.75 1.514648,0 2.75,-1.22998 2.75,-2.75 0,-1.52002 -1.235352,-2.75 -2.75,-2.75 z m 0,0" style="fill:#6272a4;fill-opacity:1;stroke-width:1.375"/><path id="path9" fill="#2e3436" d="m 91,0 c -1.52002,0 -2.75,1.22998 -2.75,2.75 0,1.52002 1.22998,2.75 2.75,2.75 1.514648,0 2.75,-1.22998 2.75,-2.75 C 93.75,1.22998 92.514648,0 91,0 Z m 0,8.25 c -1.52002,0 -2.75,1.22998 -2.75,2.75 0,1.52002 1.22998,2.75 2.75,2.75 1.514648,0 2.75,-1.22998 2.75,-2.75 0,-1.52002 -1.235352,-2.75 -2.75,-2.75 z m 0,8.25 c -1.52002,0 -2.75,1.22998 -2.75,2.75 0,1.52002 1.22998,2.75 2.75,2.75 1.514648,0 2.75,-1.22998 2.75,-2.75 0,-1.52002 -1.235352,-2.75 -2.75,-2.75 z m 0,0" style="fill:#6272a4;fill-opacity:1;stroke-width:1.375"/><path id="path10" fill="#2e3436" d="m 115,0 c -1.52002,0 -2.75,1.22998 -2.75,2.75 0,1.52002 1.22998,2.75 2.75,2.75 1.51465,0 2.75,-1.22998 2.75,-2.75 C 117.75,1.22998 116.51465,0 115,0 Z m 0,8.25 c -1.52002,0 -2.75,1.22998 -2.75,2.75 0,1.52002 1.22998,2.75 2.75,2.75 1.51465,0 2.75,-1.22998 2.75,-2.75 0,-1.52002 -1.23535,-2.75 -2.75,-2.75 z m 0,8.25 c -1.52002,0 -2.75,1.22998 -2.75,2.75 0,1.52002 1.22998,2.75 2.75,2.75 1.51465,0 2.75,-1.22998 2.75,-2.75 0,-1.52002 -1.23535,-2.75 -2.75,-2.75 z m 0,0" style="fill:#6272a4;fill-opacity:1;stroke-width:1.375"/><g id="layer7" style="display:none"><path id="path8" fill="#2e3436" d="m 121.51144,2e-6 c -0.89771,0.01211 -1.81362,0.357871 -2.62641,1.170666 L 104.90984,15.145853 C 104.32754,15.728152 104,16.516681 104,17.341606 V 22 h 4.6584 c 0.82492,0 1.61345,-0.327543 2.19575,-0.909843 L 124.82933,7.114972 C 127.60739,4.33692 124.95671,0.297218 121.89358,0.0182 121.7662,0 121.63882,0 121.51144,0 Z m -2.75986,5.598566 1.64985,1.649849 -10.96664,10.966638 -1.64985,-1.649848 z m 0,0" style="fill:#6272a4;fill-opacity:1;stroke-width:1.5528"/><path id="path7" fill="#2e3436" d="m 97.51144,2e-6 c -0.897711,0.01211 -1.81362,0.357871 -2.626411,1.170666 L 80.909844,15.145853 C 80.327544,15.728152 80,16.516681 80,17.341606 V 22 h 4.658395 c 0.824924,0 1.613454,-0.327543 2.195753,-0.909843 L 100.82933,7.114972 C 103.60739,4.33692 100.95671,0.297218 97.893575,0.0182 97.7662,0 97.638818,0 97.51144,0 Z m -2.759856,5.598566 1.649848,1.649849 -10.966638,10.966638 -1.649849,-1.649848 z m 0,0" style="fill:#6272a4;fill-opacity:1;stroke-width:1.5528"/><path id="path1-1" fill="#2e3436" d="m 73.511735,2e-6 c -0.897711,0.01211 -1.81362,0.357871 -2.626411,1.170666 L 56.910139,15.145853 c -0.5823,0.582299 -0.909844,1.370828 -0.909844,2.195753 V 22 h 4.658395 c 0.824924,0 1.613454,-0.327543 2.195753,-0.909843 L 76.829628,7.114972 C 79.607682,4.33692 76.957004,0.297218 73.89387,0.0182 73.766495,0 73.639113,0 73.511735,0 Z M 70.751879,5.598568 72.401727,7.248417 61.435089,18.215055 59.78524,16.565207 Z m 0,0" style="fill:#6272a4;fill-opacity:1;stroke-width:1.5528"/></g><path id="path1-4" fill="#222" d="m 147.81953,43 c -0.74958,0 -1.35562,0.606044 -1.35562,1.355624 V 44.9723 c -0.64326,0.175433 -1.26525,0.435925 -1.84472,0.770845 l -0.44124,-0.441242 c -0.53162,-0.531618 -1.38752,-0.531618 -1.91914,0 l -0.95691,0.962228 c -0.53161,0.531617 -0.53161,1.38752 0,1.919137 l 0.43593,0.435927 c -0.33492,0.579463 -0.5901,1.201454 -0.76553,1.844711 h -0.61668 C 139.60604,50.463906 139,51.06995 139,51.81953 v 1.36094 c 0,0.74958 0.60604,1.355624 1.35562,1.355624 h 0.61136 c 0.18075,0.643257 0.43593,1.265248 0.77085,1.844711 l -0.43593,0.435927 c -0.53161,0.531617 -0.53161,1.38752 0,1.919137 l 0.95691,0.962228 c 0.53162,0.531618 1.38752,0.531618 1.91914,0 l 0.43593,-0.435926 c 0.58478,0.329604 1.20145,0.590096 1.85003,0.760213 v 0.621992 c 0,0.74958 0.60604,1.355624 1.35562,1.355624 h 1.35562 c 0.7549,0 1.36094,-0.606044 1.36094,-1.355624 V 60.0277 c 0.64326,-0.175433 1.26525,-0.435925 1.84471,-0.770845 l 0.43593,0.441242 c 0.53162,0.531618 1.38752,0.531618 1.91914,0 l 0.96223,-0.962228 c 0.53161,-0.531617 0.53161,-1.38752 0,-1.919137 l -0.43593,-0.435927 c 0.3296,-0.579463 0.5901,-1.201454 0.76021,-1.844711 h 0.61668 c 0.7549,0 1.36094,-0.606044 1.36094,-1.355624 v -1.36094 c 0,-0.74958 -0.60604,-1.355624 -1.36094,-1.355624 h -0.61136 c -0.17543,-0.643257 -0.43593,-1.265248 -0.77085,-1.844711 l 0.44125,-0.435927 c 0.53161,-0.531617 0.53161,-1.38752 0,-1.919137 l -0.96223,-0.962228 c -0.53162,-0.531618 -1.38752,-0.531618 -1.91914,0 l -0.43593,0.435926 c -0.57946,-0.329604 -1.20145,-0.584779 -1.84471,-0.760213 V 44.355624 C 150.53609,43.606044 149.93005,43 149.17515,43 Z m 0.70173,5.411864 c 2.25938,0 4.08282,1.828763 4.08282,4.08282 0,2.254057 -1.82344,4.08282 -4.08282,4.08282 -2.25405,0 -4.08282,-1.828763 -4.08282,-4.08282 0,-2.254057 1.82877,-4.08282 4.08282,-4.08282 z m 0,0" style="fill:#6272a4;fill-opacity:1;stroke-width:1.36094"/></g><g id="layer1"><rect style="font-variation-settings:'opsz' 14,'wght' 460;display:none;opacity:.5;fill:#a46262;fill-opacity:1;stroke-width:.944882;stroke-linecap:round;stroke-linejoin:round" id="rect3" width="22" height="22" x="56" y="0"/><path id="path1-2" fill="#2e3434" d="M 35,0 C 28.941406,0 24,4.9414057 24,11 24,17.058593 28.941406,22 35,22 41.053223,22 46,17.058593 46,11 46,4.9414057 41.053223,0 35,0 Z m 0,2.75 c 4.565429,0 8.25,3.684571 8.25,8.25 0,4.565429 -3.684571,8.25 -8.25,8.25 -4.565429,0 -8.25,-3.684571 -8.25,-8.25 0,-4.565429 3.684571,-8.25 8.25,-8.25 z m 0,0" style="fill:#6272a4;fill-opacity:1;stroke-width:1.375"/><path id="path1-3" fill="#2e3436" d="M 11,0 C 4.941406,0 0,4.941406 0,11 0,17.058594 4.941406,22 11,22 17.058594,22 22,17.058594 22,11 22,4.941406 17.058594,0 11,0 Z m 0,2.75 c 4.565429,0 8.25,3.684571 8.25,8.25 0,4.565429 -3.684571,8.25 -8.25,8.25 C 6.434571,19.25 2.75,15.565429 2.75,11 2.75,6.434571 6.434571,2.75 11,2.75 Z m -0.01073,4.125 c -2.271973,0 -4.125,1.847656 -4.125,4.125 0,2.277344 1.853027,4.125 4.125,4.125 2.277344,0 4.125,-1.847656 4.125,-4.125 0,-2.277344 -1.847656,-4.125 -4.125,-4.125 z m 0,0" style="fill:#6272a4;fill-opacity:1;stroke-width:1.375"/><g id="layer5" style="display:none"><path id="path1-6" fill="#2e3434" fill-opacity=".961" d="M 28.125,0 C 25.86377,0 24,1.8637699 24,4.125 v 13.75 C 24,20.13623 25.86377,22 28.125,22 h 13.75 C 44.13623,22 46,20.13623 46,17.875 V 4.125 C 46,1.8637699 44.13623,0 41.875,0 Z m 0,2.75 h 13.75 c 0.784179,0 1.375,0.590821 1.375,1.375 v 13.75 c 0,0.784179 -0.590821,1.375 -1.375,1.375 h -13.75 c -0.784179,0 -1.375,-0.590821 -1.375,-1.375 V 4.125 c 0,-0.784179 0.590821,-1.375 1.375,-1.375 z m 0,0" style="opacity:1;fill:#6272a4;fill-opacity:1;stroke-width:1.375"/><path id="path1-9" fill="#2e3436" d="M 4.125,0 C 1.86377,0 0,1.8637699 0,4.125 v 13.75 C 0,20.13623 1.86377,22 4.125,22 h 13.75 C 20.13623,22 22,20.13623 22,17.875 V 4.125 C 22,1.8637699 20.13623,0 17.875,0 Z m 0,2.75 h 13.75 c 0.580078,0 1.052734,0.3222656 1.262207,0.8056647 L 18.21875,4.5976562 9.560547,14.49121 6.472168,11.402832 c -0.53711,-0.537109 -1.407226,-0.537109 -1.944336,0 -0.537109,0.53711 -0.537109,1.412597 0,1.949708 l 4.125,4.125 c 0.563965,0.558593 1.482422,0.531737 2.008789,-0.06982 L 19.25,7.5947273 V 17.875 c 0,0.784179 -0.590821,1.375 -1.375,1.375 H 4.125 C 3.340821,19.25 2.75,18.659179 2.75,17.875 V 4.125 C 2.75,3.340821 3.340821,2.75 4.125,2.75 Z m 0,0" style="fill:#6272a4;fill-opacity:1;stroke-width:1.375"/></g><g id="layer2" style="display:none"><path id="path1" fill="#222" d="m 43.114842,2.1629444 c -0.355124,0.010597 -0.689047,0.1590113 -0.932863,0.4134282 L 40.84629,3.912062 C 39.102474,2.7883868 37.072439,2.1841458 35,2.1788458 30.049469,2.1841358 25.729682,5.539269 24.5,10.33609 c 0.625441,2.369257 2.030034,4.457597 3.991166,5.931095 l -1.234982,1.234983 c -0.355124,0.339223 -0.498234,0.848057 -0.371026,1.319788 0.121903,0.477032 0.492933,0.848056 0.969965,0.969965 0.471732,0.127208 0.980566,-0.0159 1.319788,-0.371026 L 44.100707,4.4951 C 44.503534,4.102874 44.620142,3.5092349 44.402828,2.9950995 44.185512,2.4756656 43.671378,2.147043 43.114842,2.1629444 Z M 35,4.892627 c 1.298586,0 2.560071,0.471731 3.540636,1.325087 L 36.616607,8.141743 C 36.150176,7.79192 35.58304,7.606408 35,7.606408 c -1.5,0 -2.713781,1.21378 -2.713781,2.713781 0,0.583039 0.190813,1.150176 0.535335,1.611307 l -1.924028,1.929329 c -0.853357,-0.985867 -1.319788,-2.24205 -1.325088,-3.540636 0,-3.000001 2.427561,-5.427562 5.427562,-5.427562 z m 9.535336,2.994699 -4.537102,4.537103 c -0.545937,1.303887 -1.584806,2.337457 -2.883393,2.888693 l -3.095406,3.090105 c 0.328621,0.0371 0.651942,0.053 0.980565,0.05831 4.950531,-0.0053 9.270318,-3.360423 10.5,-8.157244 C 45.277386,9.466837 44.954065,8.655884 44.535336,7.887331 Z M 34.321555,8.963298 C 34.69788,8.963298 35,9.265418 35,9.641743 c 0,0.376326 -0.30212,0.678446 -0.678445,0.678446 -0.376326,0 -0.678446,-0.30212 -0.678446,-0.678446 0,-0.376325 0.30212,-0.678445 0.678446,-0.678445 z m 0,0" style="fill:#6272a4;fill-opacity:1;stroke-width:1.35689"/><path style="fill:#6272a4;fill-opacity:1;stroke-width:1.35689" id="path3" d="M 11,2.858657 C 6.0494693,2.863957 1.7296819,6.2190811 0.49999985,11.0106 1.7402819,15.796821 6.0600706,19.136042 11,19.141343 15.95053,19.136043 20.270317,15.780919 21.5,10.984099 20.259718,6.2031807 15.939929,2.863957 11,2.858657 Z m 0,2.7137809 c 2.994699,0 5.427561,2.4275612 5.427561,5.4275621 0,3.000001 -2.432862,5.427561 -5.427561,5.427561 C 7.9999991,16.427561 5.5724381,14.000001 5.5724381,11 5.5724381,7.9999991 7.9999992,5.5724379 11,5.5724379 Z m 0,2.713781 c -1.5000008,0 -2.7137809,1.2137805 -2.7137809,2.7137811 0,1.5 1.21378,2.713781 2.7137809,2.713781 C 12.5,13.713781 13.713781,12.5 13.713781,11 13.713781,9.4999994 12.5,8.2862189 11,8.2862189 Z"/></g></g></svg>