<svg xmlns="http://www.w3.org/2000/svg" xmlns:svg="http://www.w3.org/2000/svg" id="svg1" width="226" height="34" version="1.1" viewBox="0 0 226 34" xml:space="preserve"><g id="g19" transform="translate(0,17.999859)" style="fill:#6272a4;fill-opacity:1;opacity:.5"><path style="fill:#f55;stroke-width:1.14286" id="path5" d="m 170,18 c -4.41965,0 -8,3.580357 -8,8 0,4.419643 3.58035,8 8,8 4.41965,0 8,-3.580357 8,-8 0,-4.419643 -3.58035,-8 -8,-8 z m -4.18164,4.5 h 8.36328 c 0.83631,0 0.83594,0.908203 0.83594,0.908203 v 0.0957 c 0,0.17641 -0.0382,0.348412 -0.12305,0.501953 l -4.01562,7.023438 C 170.70576,31.342913 170.35284,31.5 170,31.5 c -0.35281,0 -0.70577,-0.157087 -0.87891,-0.470703 l -4.01562,-7.023438 c -0.0849,-0.153541 -0.12305,-0.325543 -0.12305,-0.501953 v -0.0957 c 0,0 -4e-4,-0.908203 0.83594,-0.908203 z" transform="translate(0,-17.999859)"/><path id="path17" fill="#2e3436" d="M 142,7.9999998 C 142,12.419643 138.41965,16 134,16 129.58035,16 126,12.419643 126,7.9999998 126,3.5803564 129.58035,-1e-7 134,-1e-7 c 4.41965,0 8,3.5803565 8,7.9999999 z m 0,0" style="fill:#f55;fill-opacity:1;stroke-width:1.14286"/><path style="fill:#6272a4;fill-opacity:1" id="path26" d="M 90.572266,1.1425781 C 90.255301,1.1425781 90,1.3978792 90,1.7148437 V 14.285156 c 0,0.316965 0.255301,0.572266 0.572266,0.572266 h 1.142578 c 0.316964,0 0.570312,-0.255301 0.570312,-0.572266 V 1.7148437 c 0,-0.3169645 -0.253348,-0.5722656 -0.570312,-0.5722656 z m 14.056644,0 c -0.24107,0 -0.47768,0.05385 -0.6875,0.1699219 L 94.34375,6.7988281 C 93.915179,7.035435 93.701172,7.5178572 93.701172,8 c 0,0.4821428 0.214007,0.964565 0.642578,1.2011719 l 9.59766,5.4863281 c 0.20982,0.116078 0.44643,0.169922 0.6875,0.169922 h 0.13086 c 0,0 1.24023,2.79e-4 1.24023,-1.142578 V 2.2851563 c 0,-1.1428572 -1.24023,-1.1425782 -1.24023,-1.1425782 z"/><path style="fill:#6272a4;fill-opacity:1" id="path24" d="m 2.0852077,1.9997558 c 0,0 -1.0852052,-2.441e-4 -1.0852052,0.9997559 V 13.000489 c 0,1 1.0852052,0.999756 1.0852052,0.999756 h 0.1145019 c 0.210937,0 0.4179695,-0.04711 0.6015625,-0.148682 L 11.199222,9.0510256 c 0.375,-0.207031 0.562256,-0.6291504 0.562256,-1.0510254 0,-0.421875 -0.187256,-0.8439945 -0.562256,-1.0510255 L 2.8012721,2.1484375 C 2.6176791,2.0468745 2.4106466,1.9997558 2.1997096,1.9997558 Z m 11.4143073,0 c -0.277344,0 -0.499024,0.2233885 -0.499024,0.5007325 V 13.499512 c 0,0.277344 0.22168,0.500733 0.499024,0.500733 h 0.999756 c 0.277344,0 0.500732,-0.223389 0.500732,-0.500733 V 2.5004883 c 0,-0.277344 -0.223388,-0.5007325 -0.500732,-0.5007325 z" transform="matrix(1.1428571,0,0,1.1428571,106.85714,-1.142857)"/><path id="path11" fill="#2e3436" d="m 74,-3e-7 h 12 c 1.104167,0 2,0.895833 2,2 V 14 c 0,1.104167 -0.895833,2 -2,2 H 74 c -1.104167,0 -2,-0.895833 -2,-2 V 1.9999997 c 0,-1.104167 0.895833,-2 2,-2 z m 0,0" style="fill:#6272a4;fill-opacity:1;stroke-width:1.33333"/><path style="fill:#50fa7b;stroke-width:1.14348;fill-opacity:1" id="path23" d="m 55.451172,-0.00585938 c 0,0 -1.451172,0.00157243 -1.451172,1.71679688 V 14.289063 c 0,1.715217 1.451172,1.705078 1.451172,1.705078 h 0.148437 c 0.281405,0.0045 0.557623,-0.0569 0.798828,-0.195313 L 59,14.3125 V 1.6816406 L 56.398437,0.1953125 C 56.15723,0.05682 55.881014,-0.00585937 55.599609,-0.00585938 Z M 63,3.96875 v 8.058594 l 4.601562,-2.6289065 c 0.495803,-0.276942 0.75,-0.8414869 0.75,-1.4042969 0,-0.562811 -0.254182,-1.1240053 -0.75,-1.3964844 z"/><path id="path12" fill="#222" d="m 44,0.9955324 v 2 h -4 c -2.199219,0 -4,1.800781 -4,4 v 2 c 0,1.0195306 0.386719,1.9648436 1.019531,2.6718746 0.367188,0.410156 1,0.445313 1.410157,0.07813 0.414062,-0.367188 0.449218,-1 0.07812,-1.414062 C 38.191406,9.9799074 38,9.5189704 38,8.9955324 v -2 c 0,-1.125 0.875,-2 2,-2 h 4 v 2 h 1 v -0.0078 c 0.265625,0.0039 0.519531,-0.101563 0.707031,-0.285157 l 2,-2 c 0.390625,-0.390625 0.390625,-1.023437 0,-1.414062 l -2,-2 C 45.519531,1.1049074 45.265625,0.9994384 45,0.9994384 v -0.003906 z m 6.289062,3 c -0.265624,-0.01172 -0.523437,0.07813 -0.722656,0.253906 -0.410156,0.371094 -0.445312,1.003906 -0.07813,1.414063 0.320313,0.355469 0.511719,0.816406 0.511719,1.335937 v 2 c 0,1.1289056 -0.875,1.9999996 -2,1.9999996 h -4 V 8.9955324 h -1 v 0.0078 c -0.265625,-0.0039 -0.519531,0.101565 -0.707031,0.285159 l -2,1.9999996 c -0.390625,0.390625 -0.390625,1.023437 0,1.414062 l 2,2 c 0.1875,0.183594 0.441406,0.289063 0.707031,0.285157 v 0.0078 h 1 v -1.996094 h 4 c 2.199219,0 4,-1.800781 4,-3.9999996 v -2 c 0,-1.019531 -0.386719,-1.964844 -1.019531,-2.671875 -0.175781,-0.199219 -0.425781,-0.316406 -0.691407,-0.332031 z m 0,0" style="fill:#6272a4;fill-opacity:1"/><path id="path10" fill="#2e3436" d="m 18,1.710866 v 12.578267 c 0,1.715219 1.451681,1.706286 1.451681,1.706286 h 0.147405 c 0.281405,0.0045 0.558333,-0.05812 0.79954,-0.19653 l 11.20252,-6.4008086 c 0.495803,-0.276942 0.750414,-0.839738 0.750414,-1.402548 0,-0.562811 -0.254597,-1.125607 -0.750414,-1.398086 l -11.20252,-6.400797 c -0.241207,-0.1384925 -0.518135,-0.2010079 -0.79954,-0.2010079 h -0.147405 c 0,0 -1.451681,0 -1.451681,1.7152245 z m 0,0" style="fill:#50fa7b;fill-opacity:1;stroke-width:1.14348"/><path style="fill:#6272a4;fill-opacity:1" id="path22" d="M 2.1425781,0 C 1.5131141,0 1,0.51311415 1,1.1425781 V 14.857422 C 1,15.486886 1.5131141,16 2.1425781,16 h 3.4296875 c 0.629464,0 1.1425781,-0.513114 1.1425781,-1.142578 V 1.1425781 C 6.7148437,0.51311415 6.2017296,0 5.5722656,0 Z M 10.142578,0 C 9.5131141,0 9,0.51311415 9,1.1425781 V 14.857422 C 9,15.486886 9.5131141,16 10.142578,16 h 3.429688 c 0.629464,0 1.142578,-0.513114 1.142578,-1.142578 V 1.1425781 C 14.714844,0.51311415 14.20173,0 13.572266,0 Z"/></g><g id="g34"><path style="fill:#f55;stroke-width:1.14286" id="path4" d="m 170,0 c -4.41965,0 -8,3.5803566 -8,8 0,4.419643 3.58035,8 8,8 4.41965,0 8,-3.580357 8,-8 0,-4.4196434 -3.58035,-8 -8,-8 z m -4.18164,4.5 h 8.36328 c 0.83631,0 0.83594,0.9082031 0.83594,0.9082031 v 0.095703 c 0,0.1764095 -0.0382,0.3484117 -0.12305,0.5019532 l -4.01562,7.0234376 C 170.70576,13.342913 170.35284,13.5 170,13.5 c -0.35281,0 -0.70577,-0.157087 -0.87891,-0.470703 l -4.01562,-7.0234376 c -0.0849,-0.1535415 -0.12305,-0.3255437 -0.12305,-0.5019532 v -0.095703 c 0,0 -4e-4,-0.9082031 0.83594,-0.9082031 z"/><path id="path27" fill="#2e3436" d="M 142,7.9999998 C 142,12.419643 138.41965,16 134,16 129.58035,16 126,12.419643 126,7.9999998 126,3.5803564 129.58035,-1e-7 134,-1e-7 c 4.41965,0 8,3.5803565 8,7.9999999 z m 0,0" style="fill:#f55;fill-opacity:1;stroke-width:1.14286"/><path style="fill:#6272a4" id="path28" d="M 90.572266,1.1425781 C 90.255301,1.1425781 90,1.3978792 90,1.7148437 V 14.285156 c 0,0.316965 0.255301,0.572266 0.572266,0.572266 h 1.142578 c 0.316964,0 0.570312,-0.255301 0.570312,-0.572266 V 1.7148437 c 0,-0.3169645 -0.253348,-0.5722656 -0.570312,-0.5722656 z m 14.056644,0 c -0.24107,0 -0.47768,0.05385 -0.6875,0.1699219 L 94.34375,6.7988281 C 93.915179,7.035435 93.701172,7.5178572 93.701172,8 c 0,0.4821428 0.214007,0.964565 0.642578,1.2011719 l 9.59766,5.4863281 c 0.20982,0.116078 0.44643,0.169922 0.6875,0.169922 h 0.13086 c 0,0 1.24023,2.79e-4 1.24023,-1.142578 V 2.2851563 c 0,-1.1428572 -1.24023,-1.1425782 -1.24023,-1.1425782 z"/><path style="fill:#6272a4;fill-opacity:1" id="path29" d="m 2.0852077,1.9997558 c 0,0 -1.0852052,-2.441e-4 -1.0852052,0.9997559 V 13.000489 c 0,1 1.0852052,0.999756 1.0852052,0.999756 h 0.1145019 c 0.210937,0 0.4179695,-0.04711 0.6015625,-0.148682 L 11.199222,9.0510256 c 0.375,-0.207031 0.562256,-0.6291504 0.562256,-1.0510254 0,-0.421875 -0.187256,-0.8439945 -0.562256,-1.0510255 L 2.8012721,2.1484375 C 2.6176791,2.0468745 2.4106466,1.9997558 2.1997096,1.9997558 Z m 11.4143073,0 c -0.277344,0 -0.499024,0.2233885 -0.499024,0.5007325 V 13.499512 c 0,0.277344 0.22168,0.500733 0.499024,0.500733 h 0.999756 c 0.277344,0 0.500732,-0.223389 0.500732,-0.500733 V 2.5004883 c 0,-0.277344 -0.223388,-0.5007325 -0.500732,-0.5007325 z" transform="matrix(1.1428571,0,0,1.1428571,106.85714,-1.142857)"/><path id="path30" fill="#2e3436" d="m 74,-3e-7 h 12 c 1.104167,0 2,0.895833 2,2 V 14 c 0,1.104167 -0.895833,2 -2,2 H 74 c -1.104167,0 -2,-0.895833 -2,-2 V 1.9999997 c 0,-1.104167 0.895833,-2 2,-2 z m 0,0" style="fill:#6272a4;fill-opacity:1;stroke-width:1.33333"/><path style="fill:#50fa7b;stroke-width:1.14348" id="path31" d="m 55.451172,-0.00585938 c 0,0 -1.451172,0.00157243 -1.451172,1.71679688 V 14.289063 c 0,1.715217 1.451172,1.705078 1.451172,1.705078 h 0.148437 c 0.281405,0.0045 0.557623,-0.0569 0.798828,-0.195313 L 59,14.3125 V 1.6816406 L 56.398437,0.1953125 C 56.15723,0.05682 55.881014,-0.00585937 55.599609,-0.00585938 Z M 63,3.96875 v 8.058594 l 4.601562,-2.6289065 c 0.495803,-0.276942 0.75,-0.8414869 0.75,-1.4042969 0,-0.562811 -0.254182,-1.1240053 -0.75,-1.3964844 z"/><path id="path32" fill="#222" d="m 44,0.9955324 v 2 h -4 c -2.199219,0 -4,1.800781 -4,4 v 2 c 0,1.0195306 0.386719,1.9648436 1.019531,2.6718746 0.367188,0.410156 1,0.445313 1.410157,0.07813 0.414062,-0.367188 0.449218,-1 0.07812,-1.414062 C 38.191406,9.9799074 38,9.5189704 38,8.9955324 v -2 c 0,-1.125 0.875,-2 2,-2 h 4 v 2 h 1 v -0.0078 c 0.265625,0.0039 0.519531,-0.101563 0.707031,-0.285157 l 2,-2 c 0.390625,-0.390625 0.390625,-1.023437 0,-1.414062 l -2,-2 C 45.519531,1.1049074 45.265625,0.9994384 45,0.9994384 v -0.003906 z m 6.289062,3 c -0.265624,-0.01172 -0.523437,0.07813 -0.722656,0.253906 -0.410156,0.371094 -0.445312,1.003906 -0.07813,1.414063 0.320313,0.355469 0.511719,0.816406 0.511719,1.335937 v 2 c 0,1.1289056 -0.875,1.9999996 -2,1.9999996 h -4 V 8.9955324 h -1 v 0.0078 c -0.265625,-0.0039 -0.519531,0.101565 -0.707031,0.285159 l -2,1.9999996 c -0.390625,0.390625 -0.390625,1.023437 0,1.414062 l 2,2 c 0.1875,0.183594 0.441406,0.289063 0.707031,0.285157 v 0.0078 h 1 v -1.996094 h 4 c 2.199219,0 4,-1.800781 4,-3.9999996 v -2 c 0,-1.019531 -0.386719,-1.964844 -1.019531,-2.671875 -0.175781,-0.199219 -0.425781,-0.316406 -0.691407,-0.332031 z m 0,0" style="fill:#6272a4;fill-opacity:1"/><path id="path33" fill="#2e3436" d="m 18,1.710866 v 12.578267 c 0,1.715219 1.451681,1.706286 1.451681,1.706286 h 0.147405 c 0.281405,0.0045 0.558333,-0.05812 0.79954,-0.19653 l 11.20252,-6.4008086 c 0.495803,-0.276942 0.750414,-0.839738 0.750414,-1.402548 0,-0.562811 -0.254597,-1.125607 -0.750414,-1.398086 l -11.20252,-6.400797 c -0.241207,-0.1384925 -0.518135,-0.2010079 -0.79954,-0.2010079 h -0.147405 c 0,0 -1.451681,0 -1.451681,1.7152245 z m 0,0" style="fill:#50fa7b;fill-opacity:1;stroke-width:1.14348"/><path style="fill:#6272a4" id="path34" d="M 2.1425781,0 C 1.5131141,0 1,0.51311415 1,1.1425781 V 14.857422 C 1,15.486886 1.5131141,16 2.1425781,16 h 3.4296875 c 0.629464,0 1.1425781,-0.513114 1.1425781,-1.142578 V 1.1425781 C 6.7148437,0.51311415 6.2017296,0 5.5722656,0 Z M 10.142578,0 C 9.5131141,0 9,0.51311415 9,1.1425781 V 14.857422 C 9,15.486886 9.5131141,16 10.142578,16 h 3.429688 c 0.629464,0 1.142578,-0.513114 1.142578,-1.142578 V 1.1425781 C 14.714844,0.51311415 14.20173,0 13.572266,0 Z"/></g></svg>