<?xml version="1.0" encoding="UTF-8" standalone="no"?>
<!-- Created with Inkscape (http://www.inkscape.org/) -->

<svg
   width="143"
   height="85"
   viewBox="0 0 143 85"
   version="1.1"
   id="svg1"
   inkscape:version="1.4 (e7c3feb100, 2024-10-09)"
   sodipodi:docname="secondary-icons.svg"
   inkscape:export-filename="secondary-icons.png"
   inkscape:export-xdpi="96"
   inkscape:export-ydpi="96"
   xmlns:inkscape="http://www.inkscape.org/namespaces/inkscape"
   xmlns:sodipodi="http://sodipodi.sourceforge.net/DTD/sodipodi-0.dtd"
   xmlns="http://www.w3.org/2000/svg"
   xmlns:svg="http://www.w3.org/2000/svg">
  <sodipodi:namedview
     id="namedview1"
     pagecolor="#505050"
     bordercolor="#eeeeee"
     borderopacity="1"
     inkscape:showpageshadow="0"
     inkscape:pageopacity="0"
     inkscape:pagecheckerboard="0"
     inkscape:deskcolor="#505050"
     inkscape:document-units="px"
     inkscape:zoom="3.8995956"
     inkscape:cx="65.00674"
     inkscape:cy="67.314672"
     inkscape:current-layer="g20" />
  <defs
     id="defs1" />
  <rect
     style="font-variation-settings:'opsz' 14, 'wght' 460;display:none;opacity:0.5;fill:#a46262;fill-opacity:1;stroke-width:0.944882;stroke-linecap:round;stroke-linejoin:round"
     id="rect1"
     width="27"
     height="27"
     x="116"
     y="58" />
  <g
     inkscape:groupmode="layer"
     id="g20"
     inkscape:label="zoom icons inactive"
     transform="translate(0,27.75)"
     style="opacity:0.5;fill:#6272a4;fill-opacity:1">
    <path
       d="M 128.35228,35.25 C 124.30541,35.25 121,38.555407 121,42.602283 c 0,4.046876 3.30541,7.350209 7.35228,7.350209 1.61691,0 3.11436,-0.527762 4.33086,-1.419408 l 3.36383,3.36383 c 1.0824,1.060317 2.67405,-0.564531 1.59164,-1.624848 l -3.34723,-3.349304 c 0.88691,-1.214582 1.41111,-2.70831 1.41111,-4.320479 0,-4.046876 -3.30333,-7.352283 -7.35021,-7.352283 z m 0,2.261922 c 2.8231,0 5.08829,2.267267 5.08829,5.090361 0,2.827512 -2.26519,5.088287 -5.08829,5.088287 -2.82309,0 -5.09036,-2.260775 -5.09036,-5.088287 0,-2.823094 2.26727,-5.090361 5.09036,-5.090361 z"
       style="fill:#6272a4;fill-opacity:1;stroke-width:1.131"
       id="path16"
       inkscape:label="zoom toggle" />
    <path
       d="m 93.5,35.25 c -0.265625,0 -0.519531,0.105469 -0.707031,0.292969 -0.390626,0.390625 -0.390626,1.023437 0,1.414062 L 95.085937,39.25 H 93.5 c -0.550781,0 -1,0.449219 -1,1 0,0.550781 0.449219,1 1,1 h 5 v -5 c 0,-0.550781 -0.449219,-1 -1,-1 -0.550781,0 -1,0.449219 -1,1 v 1.585937 L 94.207031,35.542969 C 94.019531,35.355469 93.765625,35.25 93.5,35.25 Z m 10,0 c -0.55078,0 -1,0.449219 -1,1 v 5 h 5 c 0.55078,0 1,-0.449219 1,-1 0,-0.550781 -0.44922,-1 -1,-1 h -1.58594 l 2.29297,-2.292969 c 0.39063,-0.390625 0.39063,-1.023437 0,-1.414062 C 108.01953,35.355469 107.76562,35.25 107.5,35.25 c -0.26563,0 -0.51953,0.105469 -0.70703,0.292969 L 104.5,37.835937 V 36.25 c 0,-0.550781 -0.44922,-1 -1,-1 z m -10,10 c -0.550781,0 -1,0.449219 -1,1 0,0.550781 0.449219,1 1,1 h 1.585937 l -2.292968,2.292969 c -0.390626,0.390625 -0.390626,1.023437 0,1.414062 0.1875,0.1875 0.441406,0.292969 0.707031,0.292969 0.265625,0 0.519531,-0.105469 0.707031,-0.292969 L 96.5,48.664063 V 50.25 c 0,0.550781 0.449219,1 1,1 0.550781,0 1,-0.449219 1,-1 v -5 z m 9,0 v 5 c 0,0.550781 0.44922,1 1,1 0.55078,0 1,-0.449219 1,-1 v -1.585937 l 2.29297,2.292968 c 0.1875,0.1875 0.4414,0.292969 0.70703,0.292969 0.26562,0 0.51953,-0.105469 0.70703,-0.292969 0.39063,-0.390625 0.39063,-1.023437 0,-1.414062 L 105.91406,47.25 H 107.5 c 0.55078,0 1,-0.449219 1,-1 0,-0.550781 -0.44922,-1 -1,-1 z"
       style="fill:#6272a4;fill-opacity:1"
       id="path17"
       inkscape:label="selection zoom" />
    <path
       d="M 70.352284,35.25 C 66.305408,35.25 63,38.555407 63,42.602284 c 0,4.046876 3.305408,7.350208 7.352284,7.350208 1.616907,0 3.114353,-0.527762 4.330854,-1.419408 l 3.363831,3.36383 c 1.082406,1.060317 2.674051,-0.564531 1.591645,-1.624848 l -3.347229,-3.349304 c 0.886904,-1.214582 1.411107,-2.708309 1.411107,-4.320478 0,-4.046877 -3.30333,-7.352284 -7.350208,-7.352284 z m 0,2.261922 c 2.823094,0 5.088287,2.267267 5.088287,5.090362 0,2.827512 -2.265193,5.088287 -5.088287,5.088287 -2.823094,0 -5.090362,-2.260775 -5.090362,-5.088287 0,-2.823095 2.267268,-5.090362 5.090362,-5.090362 z m -3.392883,3.959401 v 2.261922 h 6.785765 v -2.261922 z"
       style="fill:#6272a4;fill-opacity:1;stroke-width:1.131"
       id="path18"
       inkscape:label="zoom out" />
    <path
       d="M 41.352284,35.25 C 37.305408,35.25 34,38.555407 34,42.602284 c 0,4.046876 3.305408,7.350208 7.352284,7.350208 1.616907,0 3.114353,-0.527762 4.330854,-1.419408 l 3.363831,3.36383 c 1.082406,1.060317 2.674051,-0.564531 1.591645,-1.624848 l -3.347229,-3.349304 c 0.886904,-1.214582 1.411107,-2.708309 1.411107,-4.320478 0,-4.046877 -3.30333,-7.352284 -7.350208,-7.352284 z m 0,2.261922 c 2.823094,0 5.088287,2.267267 5.088287,5.090362 0,2.827512 -2.265193,5.088287 -5.088287,5.088287 -2.823094,0 -5.090362,-2.260775 -5.090362,-5.088287 0,-2.823095 2.267268,-5.090362 5.090362,-5.090362 z m -1.130961,1.697479 v 2.261922 h -2.261922 v 2.261922 h 2.261922 v 2.261921 h 2.261921 v -2.261921 h 2.261922 v -2.261922 h -2.261922 v -2.261922 z"
       style="fill:#6272a4;fill-opacity:1;stroke-width:1.131"
       id="path19"
       inkscape:label="zoom in" />
    <path
       d="m 5,35.25 v 5.3125 c 0,0.585205 0.4772952,1.0625 1.0625,1.0625 0.5852048,0 1.0625,-0.477295 1.0625,-1.0625 v -1.685059 l 2.436279,2.43628 C 9.760498,41.512939 10.030273,41.625 10.3125,41.625 c 0.282227,0 0.552002,-0.112061 0.751221,-0.311279 0.415039,-0.415039 0.415039,-1.087403 0,-1.502442 L 8.627441,37.375 H 10.3125 c 0.585205,0 1.0625,-0.477295 1.0625,-1.0625 0,-0.585205 -0.477295,-1.0625 -1.0625,-1.0625 z m 11.6875,0 c -0.585205,0 -1.0625,0.477295 -1.0625,1.0625 0,0.585205 0.477295,1.0625 1.0625,1.0625 h 1.685059 l -2.436279,2.436279 c -0.41504,0.415039 -0.41504,1.087403 0,1.502442 0.199218,0.199218 0.468993,0.311279 0.75122,0.311279 0.282227,0 0.552002,-0.112061 0.75122,-0.311279 L 19.875,38.877441 V 40.5625 c 0,0.585205 0.477295,1.0625 1.0625,1.0625 C 21.522705,41.625 22,41.147705 22,40.5625 V 35.25 Z M 6.0625,45.875 C 5.4772952,45.875 5,46.352295 5,46.9375 V 52.25 h 5.3125 c 0.585205,0 1.0625,-0.477295 1.0625,-1.0625 0,-0.585205 -0.477295,-1.0625 -1.0625,-1.0625 H 8.627441 l 2.43628,-2.43628 c 0.415039,-0.415039 0.415039,-1.087401 0,-1.50244 C 10.864502,45.987061 10.594727,45.875 10.3125,45.875 c -0.282227,0 -0.552002,0.112061 -0.751221,0.31128 L 7.125,48.622559 V 46.9375 c 0,-0.585205 -0.4772952,-1.0625 -1.0625,-1.0625 z m 10.625,0 c -0.282227,0 -0.552002,0.112061 -0.75122,0.31128 -0.41504,0.415039 -0.41504,1.087401 0,1.50244 L 18.372559,50.125 H 16.6875 c -0.585205,0 -1.0625,0.477295 -1.0625,1.0625 0,0.585205 0.477295,1.0625 1.0625,1.0625 H 22 v -5.3125 c 0,-0.585205 -0.477295,-1.0625 -1.0625,-1.0625 -0.585205,0 -1.0625,0.477295 -1.0625,1.0625 v 1.685059 L 17.43872,46.18628 C 17.239502,45.987061 16.969727,45.875 16.6875,45.875 Z"
       style="fill:#6272a4;fill-opacity:1;stroke-width:1.0625"
       id="path20"
       inkscape:label="project zoom" />
  </g>
  <g
     inkscape:groupmode="layer"
     id="layer2"
     inkscape:label="zoom icons active">
    <path
       d="m 128.35228,34.00403 c -4.04687,0 -7.35228,3.305407 -7.35228,7.352283 0,4.046876 3.30541,7.350209 7.35228,7.350209 1.61691,0 3.11436,-0.527762 4.33086,-1.419408 l 3.36383,3.36383 c 1.0824,1.060317 2.67405,-0.564531 1.59164,-1.624848 l -3.34723,-3.349304 c 0.88691,-1.214582 1.41111,-2.70831 1.41111,-4.320479 0,-4.046876 -3.30333,-7.352283 -7.35021,-7.352283 z m 0,2.261922 c 2.8231,0 5.08829,2.267267 5.08829,5.090361 0,2.827512 -2.26519,5.088287 -5.08829,5.088287 -2.82309,0 -5.09036,-2.260775 -5.09036,-5.088287 0,-2.823094 2.26727,-5.090361 5.09036,-5.090361 z"
       style="fill:#6272a4;fill-opacity:1;stroke-width:1.131"
       id="path11"
       inkscape:label="zoom toggle" />
    <path
       d="m 93.0625,34 c -0.282227,0 -0.552002,0.112061 -0.751221,0.311279 -0.415039,0.415039 -0.415039,1.087403 0,1.502442 L 94.747559,38.25 H 93.0625 C 92.477295,38.25 92,38.727295 92,39.3125 c 0,0.585205 0.477295,1.0625 1.0625,1.0625 H 98.375 V 35.0625 C 98.375,34.477295 97.897705,34 97.3125,34 96.727295,34 96.25,34.477295 96.25,35.0625 v 1.685059 l -2.436279,-2.43628 C 93.614502,34.112061 93.344727,34 93.0625,34 Z m 10.625,0 c -0.5852,0 -1.0625,0.477295 -1.0625,1.0625 v 5.3125 h 5.3125 c 0.5852,0 1.0625,-0.477295 1.0625,-1.0625 0,-0.585205 -0.4773,-1.0625 -1.0625,-1.0625 h -1.68506 l 2.43628,-2.436279 c 0.41504,-0.415039 0.41504,-1.087403 0,-1.502442 C 108.4895,34.112061 108.21973,34 107.9375,34 c -0.28223,0 -0.552,0.112061 -0.75122,0.311279 L 104.75,36.747559 V 35.0625 C 104.75,34.477295 104.2727,34 103.6875,34 Z M 93.0625,44.625 C 92.477295,44.625 92,45.102295 92,45.6875 c 0,0.585205 0.477295,1.0625 1.0625,1.0625 h 1.685059 l -2.43628,2.436279 c -0.415039,0.415039 -0.415039,1.087402 0,1.502441 C 92.510498,50.887939 92.780273,51 93.0625,51 c 0.282227,0 0.552002,-0.112061 0.751221,-0.31128 L 96.25,48.252442 V 49.9375 c 0,0.585205 0.477295,1.0625 1.0625,1.0625 0.585205,0 1.0625,-0.477295 1.0625,-1.0625 V 44.625 Z m 9.5625,0 v 5.3125 c 0,0.585205 0.4773,1.0625 1.0625,1.0625 0.5852,0 1.0625,-0.477295 1.0625,-1.0625 v -1.685058 l 2.43628,2.436278 C 107.3855,50.887939 107.65527,51 107.9375,51 c 0.28223,0 0.552,-0.112061 0.75122,-0.31128 0.41504,-0.415039 0.41504,-1.087402 0,-1.502441 L 106.25244,46.75 h 1.68506 c 0.5852,0 1.0625,-0.477295 1.0625,-1.0625 0,-0.585205 -0.4773,-1.0625 -1.0625,-1.0625 z"
       style="fill:#6272a4;fill-opacity:1;stroke-width:1.0625"
       id="path10"
       inkscape:label="selection zoom" />
    <path
       d="M 70.352284,34.00403 C 66.305408,34.00403 63,37.309437 63,41.356314 c 0,4.046876 3.305408,7.350208 7.352284,7.350208 1.616907,0 3.114353,-0.527762 4.330854,-1.419408 l 3.363831,3.36383 c 1.082406,1.060317 2.674051,-0.564531 1.591645,-1.624848 l -3.347229,-3.349304 c 0.886904,-1.214582 1.411107,-2.708309 1.411107,-4.320478 0,-4.046877 -3.30333,-7.352284 -7.350208,-7.352284 z m 0,2.261922 c 2.823094,0 5.088287,2.267267 5.088287,5.090362 0,2.827512 -2.265193,5.088287 -5.088287,5.088287 -2.823094,0 -5.090362,-2.260775 -5.090362,-5.088287 0,-2.823095 2.267268,-5.090362 5.090362,-5.090362 z m -3.392883,3.959401 v 2.261922 h 6.785765 v -2.261922 z"
       style="fill:#6272a4;fill-opacity:1;stroke-width:1.131"
       id="path9"
       inkscape:label="zoom out" />
    <path
       d="M 41.352284,34.00403 C 37.305408,34.00403 34,37.309437 34,41.356314 c 0,4.046876 3.305408,7.350208 7.352284,7.350208 1.616907,0 3.114353,-0.527762 4.330854,-1.419408 l 3.363831,3.36383 c 1.082406,1.060317 2.674051,-0.564531 1.591645,-1.624848 l -3.347229,-3.349304 c 0.886904,-1.214582 1.411107,-2.708309 1.411107,-4.320478 0,-4.046877 -3.30333,-7.352284 -7.350208,-7.352284 z m 0,2.261922 c 2.823094,0 5.088287,2.267267 5.088287,5.090362 0,2.827512 -2.265193,5.088287 -5.088287,5.088287 -2.823094,0 -5.090362,-2.260775 -5.090362,-5.088287 0,-2.823095 2.267268,-5.090362 5.090362,-5.090362 z m -1.130961,1.697479 v 2.261922 h -2.261922 v 2.261922 h 2.261922 v 2.261921 h 2.261921 v -2.261921 h 2.261922 v -2.261922 h -2.261922 v -2.261922 z"
       style="fill:#6272a4;fill-opacity:1;stroke-width:1.131"
       id="path12"
       inkscape:label="zoom in" />
    <path
       d="m 5,34 v 5.3125 c 0,0.585205 0.4772952,1.0625 1.0625,1.0625 0.5852048,0 1.0625,-0.477295 1.0625,-1.0625 v -1.685059 l 2.436279,2.43628 C 9.760498,40.262939 10.030273,40.375 10.3125,40.375 c 0.282227,0 0.552002,-0.112061 0.751221,-0.311279 0.415039,-0.415039 0.415039,-1.087403 0,-1.502442 L 8.627441,36.125 H 10.3125 c 0.585205,0 1.0625,-0.477295 1.0625,-1.0625 C 11.375,34.477295 10.897705,34 10.3125,34 Z m 11.6875,0 c -0.585205,0 -1.0625,0.477295 -1.0625,1.0625 0,0.585205 0.477295,1.0625 1.0625,1.0625 h 1.685059 l -2.436279,2.436279 c -0.41504,0.415039 -0.41504,1.087403 0,1.502442 0.199218,0.199218 0.468993,0.311279 0.75122,0.311279 0.282227,0 0.552002,-0.112061 0.75122,-0.311279 L 19.875,37.627441 V 39.3125 c 0,0.585205 0.477295,1.0625 1.0625,1.0625 C 21.522705,40.375 22,39.897705 22,39.3125 V 34 Z M 6.0625,44.625 C 5.4772952,44.625 5,45.102295 5,45.6875 V 51 h 5.3125 c 0.585205,0 1.0625,-0.477295 1.0625,-1.0625 0,-0.585205 -0.477295,-1.0625 -1.0625,-1.0625 H 8.627441 l 2.43628,-2.43628 c 0.415039,-0.415039 0.415039,-1.087401 0,-1.50244 C 10.864502,44.737061 10.594727,44.625 10.3125,44.625 c -0.282227,0 -0.552002,0.112061 -0.751221,0.31128 L 7.125,47.372559 V 45.6875 c 0,-0.585205 -0.4772952,-1.0625 -1.0625,-1.0625 z m 10.625,0 c -0.282227,0 -0.552002,0.112061 -0.75122,0.31128 -0.41504,0.415039 -0.41504,1.087401 0,1.50244 L 18.372559,48.875 H 16.6875 c -0.585205,0 -1.0625,0.477295 -1.0625,1.0625 0,0.585205 0.477295,1.0625 1.0625,1.0625 H 22 v -5.3125 c 0,-0.585205 -0.477295,-1.0625 -1.0625,-1.0625 -0.585205,0 -1.0625,0.477295 -1.0625,1.0625 v 1.685059 L 17.43872,44.93628 C 17.239502,44.737061 16.969727,44.625 16.6875,44.625 Z"
       style="fill:#6272a4;fill-opacity:1;stroke-width:1.0625"
       id="path6"
       inkscape:label="project zoom" />
  </g>
  <g
     inkscape:label="edit icons"
     inkscape:groupmode="layer"
     id="layer1">
    <path
       d="m 123.12433,5.0006627 c -0.5851,0 -1.06046,0.4774343 -1.06046,1.0625425 v 0.7387992 c 0,0.5685104 0.46285,1.1248384 0.79898,1.3074254 0.10789,0.062246 0.14944,0.058115 0.23658,0.091312 -0.12864,0.053946 -0.20756,0.05398 -0.3611,0.1660219 -0.35687,0.265582 -0.67446,0.846823 -0.67446,1.377985 0,0.5311633 0.274,1.0895833 0.61013,1.3842113 0.17844,0.157689 0.30095,0.182639 0.45449,0.257335 -0.13695,0.0581 -0.23455,0.06644 -0.40468,0.199226 -0.35688,0.27388 -0.65994,0.850973 -0.65994,1.382136 0,0.531162 0.3342,1.158059 0.75332,1.41534 0.0257,0.016 0.0496,0.02938 0.0747,0.04358 l -0.66201,0.662014 c -0.88389,0.888036 -1.28251,2.004929 -1.22441,3.034056 0.0622,1.033278 0.53556,1.957129 1.22441,2.645981 0.693,0.693001 1.61685,1.162168 2.64598,1.224414 1.03328,0.06224 2.15017,-0.336376 3.03406,-1.224414 l 3.71475,-3.712674 v 4.941239 h 2.12301 c 2.26158,0 4.18376,-1.866141 4.19621,-4.140181 l 0.0539,-8.5978793 h -0.002 c 0.006,-0.127213 0.006,-0.252499 -0.002,-0.3777 -0.0621,-1.033277 -0.53546,-1.9592052 -1.22431,-2.6522063 -0.68885,-0.6888517 -1.61478,-1.1580183 -2.64806,-1.2202638 -1.03327,-0.062245 -2.14809,0.3363767 -3.03198,1.2202638 l -5.31894,5.3189386 c 0.007,-0.05821 0.0104,-0.116834 0.0104,-0.174323 0,-0.531162 -0.34041,-1.093724 -0.68069,-1.346856 -0.19089,-0.1410903 -0.30717,-0.1618843 -0.45241,-0.2241303 0.15769,-0.06224 0.27812,-0.07474 0.46901,-0.22413 0.36103,-0.27803 0.66409,-0.859274 0.66409,-1.3904366 0,-0.5311623 -0.28646,-1.0958059 -0.63918,-1.3821353 -0.34858,-0.2863295 -0.67659,-0.3777155 -0.90898,-0.4482603 -0.029,-0.0083 -0.0166,-0.00415 -0.0456,-0.016602 V 6.0632052 c -2.6e-4,-0.5851082 -0.4777,-1.0625425 -1.06281,-1.0625425 z m 10.70429,2.1271604 c 0.0561,-0.0019 0.11208,-0.00104 0.1681,0.00207 0.44817,0.024899 0.91319,0.249106 1.27007,0.6018307 0.35687,0.3568752 0.58108,0.8260519 0.60598,1.2700709 0.0249,0.448168 -0.0956,0.898699 -0.60598,1.4049643 l -8.85937,8.861442 c -0.50626,0.510413 -0.95887,0.630879 -1.40703,0.605981 -0.44402,-0.0249 -0.9132,-0.249106 -1.27007,-0.605981 -0.35273,-0.356874 -0.57694,-0.821902 -0.60599,-1.270071 -0.0249,-0.444019 0.0997,-0.896623 0.60599,-1.402888 l 8.86143,-8.8635144 c 0.44662,-0.4429805 0.84387,-0.5906299 1.23687,-0.603906 z m -0.0809,1.0604672 c -0.58511,0 -1.06047,0.4774344 -1.06047,1.0625424 0,0.589259 0.47536,1.0604673 1.06047,1.0604673 0.58511,0 1.06254,-0.4712083 1.06254,-1.0604673 0,-0.585108 -0.47743,-1.0625424 -1.06254,-1.0625424 z m 2.10226,4.6444737 -0.0311,5.011797 c -0.008,0.979331 -1.08349,2.029623 -2.07112,2.029623 v -4.941238 z m -12.19433,1.197435 c 0.0249,0.178438 0.0955,0.344526 0.19922,0.485616 -0.008,-0.0083 -0.0125,-0.0042 -0.0249,-0.0166 -0.12034,-0.145239 -0.17432,-0.365271 -0.17432,-0.469014 z m 1.59381,2.656357 c -0.58511,0 -1.06254,0.477434 -1.06254,1.062543 0,0.589258 0.47743,1.062542 1.06254,1.062542 0.58511,0 1.06254,-0.473284 1.06254,-1.062542 0,-0.585109 -0.47743,-1.062543 -1.06254,-1.062543 z"
       style="fill:#6272a4;fill-opacity:1;stroke-width:1.06232"
       id="path15"
       inkscape:label="multi tool" />
    <path
       d="m 105.53193,4.9997685 c -0.69369,0.00937 -1.40147,0.2765445 -2.02954,0.90463 L 92.703077,16.7037 c -0.449969,0.449971 -0.703078,1.059306 -0.703078,1.696765 v 3.599767 h 3.599762 c 0.637458,0 1.246802,-0.25311 1.696771,-0.703081 L 108.09583,10.49785 c 2.14674,-2.1467355 0.0984,-5.2684082 -2.2686,-5.4840196 -0.0984,-0.014062 -0.19686,-0.014062 -0.2953,-0.014062 z m -2.13267,4.326283 1.27492,1.2749175 -8.474456,8.474452 -1.274916,-1.274918 z m 0,0"
       fill="#2e3436"
       id="path1-2"
       style="fill:#6272a4;fill-opacity:1;stroke-width:1.19992"
       inkscape:label="edit" />
    <path
       d="m 68.259766,9.179688 c -0.333334,0 -0.595357,0.09598 -0.810547,0.302734 L 63.5,13.5 l 3.949219,4.017578 c 0.21519,0.206751 0.477213,0.302734 0.810547,0.302734 h 1.080078 v -1.080078 c 0,-0.27848 -0.139578,-0.568639 -0.337891,-0.77539 L 66.572266,13.5 69.001953,11.035156 c 0.198313,-0.206751 0.337891,-0.49691 0.337891,-0.77539 V 9.179688 Z m 5.40039,0 v 1.080078 c 0,0.27848 0.139579,0.568639 0.337892,0.77539 L 76.427735,13.5 73.998048,15.964844 c -0.198313,0.206751 -0.337892,0.49691 -0.337892,0.77539 v 1.080078 h 1.080079 c 0.333333,0 0.595356,-0.09598 0.810547,-0.302734 L 79.5,13.5 75.550782,9.482422 C 75.335591,9.275671 75.073568,9.179688 74.740235,9.179688 Z"
       style="fill:#6272a4;fill-opacity:1;stroke-width:1.08017"
       id="path14"
       inkscape:label="icon" />
    <path
       d="m 48.572026,4.999998 c -1.332868,0 -2.430054,1.0951106 -2.430054,2.4279786 0,0.2170765 0.03066,0.4279979 0.08508,0.6287842 l -9.17029,9.1702882 c -0.200786,-0.05441 -0.411708,-0.08508 -0.628784,-0.08508 -1.332868,0 -2.427979,1.097186 -2.427979,2.430054 0,1.332868 1.095111,2.427979 2.427979,2.427979 1.332868,0 2.430053,-1.095111 2.430053,-2.427979 0,-0.217077 -0.03066,-0.427998 -0.08508,-0.628785 l 9.170287,-9.170286 c 0.200787,0.05442 0.411709,0.08508 0.628785,0.08508 1.332868,0 2.427978,-1.097185 2.427978,-2.4300534 3e-6,-1.33287 -1.095107,-2.4279806 -2.427975,-2.4279806 z m 0,1.2139893 c 0.678293,0 1.21399,0.5356966 1.21399,1.2139893 0,0.6782927 -0.535697,1.2139894 -1.21399,1.2139894 -0.678292,0 -1.213989,-0.5356967 -1.213989,-1.2139894 0,-0.6782927 0.535697,-1.2139893 1.213989,-1.2139893 z M 36.427983,18.358031 c 0.678292,0 1.213989,0.535697 1.213989,1.213989 0,0.678293 -0.535697,1.21399 -1.213989,1.21399 -0.678293,0 -1.21399,-0.535697 -1.21399,-1.21399 0,-0.678292 0.535697,-1.213989 1.21399,-1.213989 z"
       style="fill:#6272a4;fill-opacity:1;stroke-width:1.21429"
       id="path13"
       inkscape:label="envelope" />
    <path
       d="M 8.1875,5 C 6.4401858,5 5,6.4401858 5,8.1875 V 9.25 H 7.125 V 8.1875 C 7.125,7.5815435 7.5815435,7.125 8.1875,7.125 H 9.25 V 5 Z m 3.1875,0 v 2.125 h 4.25 V 5 Z m 6.375,0 v 2.125 h 1.0625 c 0.605957,0 1.0625,0.4565435 1.0625,1.0625 V 9.25 H 22 V 8.1875 C 22,6.4401858 20.559814,5 18.8125,5 Z M 5,11.375 v 4.25 h 2.125 v -4.25 z m 14.875,0 v 4.25 H 22 v -4.25 z M 5,17.75 v 1.0625 C 5,20.559814 6.4401858,22 8.1875,22 H 9.25 V 19.875 H 8.1875 C 7.5815435,19.875 7.125,19.418457 7.125,18.8125 V 17.75 Z m 14.875,0 v 1.0625 c 0,0.605957 -0.456543,1.0625 -1.0625,1.0625 H 17.75 V 22 h 1.0625 C 20.559814,22 22,20.559814 22,18.8125 V 17.75 Z m -8.5,2.125 V 22 h 4.25 v -2.125 z m 0,0"
       fill="#222222"
       id="path1-3"
       style="fill:#6272a4;fill-opacity:1;stroke-width:1.0625"
       inkscape:label="select" />
  </g>
</svg>
