<svg xmlns="http://www.w3.org/2000/svg" xmlns:svg="http://www.w3.org/2000/svg" id="svg1" width="198" height="82" version="1.1" viewBox="0 0 198 82"><g id="g77" transform="translate(0,29)" style="fill:#6272a4;fill-opacity:1;opacity:.5"><rect style="font-variation-settings:'opsz' 14,'wght' 460;display:none;opacity:.5;fill:#6272a4;fill-opacity:1;stroke-width:.944882;stroke-linecap:round;stroke-linejoin:round" id="rect74" width="20" height="20" x="112" y="29"/><path style="display:inline;fill:#6272a4;fill-opacity:1" id="path74" d="M 6.5,0 C 5.113281,0 4,1.113281 4,2.5 V 3 H 1 C 0.449219,3 0,3.449219 0,4 0,4.550781 0.449219,5 1,5 h 1 v 8 c 0,1.660156 1.339844,3 3,3 h 6 c 1.660156,0 3,-1.339844 3,-3 V 5 h 1 C 15.550781,5 16,4.550781 16,4 16,3.449219 15.550781,3 15,3 H 11.979779 V 2.5 c 0,-1.386719 -1.117188,-2.5 -2.4999996,-2.5 z m 0,2 h 2.9797794 c 0.269531,0 0.5,0.230469 0.5,0.5 V 3 H 6 V 2.5 C 6,2.230469 6.230469,2 6.5,2 Z M 4,5 h 8 v 8 c 0,0.546875 -0.453125,1 -1,1 H 5 C 4.453125,14 4,13.546875 4,13 Z M 6.5,6.5 C 6.222656,6.5 6,6.722656 6,7 v 5 c 0,0.277344 0.222656,0.5 0.5,0.5 C 6.777344,12.5 7,12.277344 7,12 V 7 C 7,6.722656 6.777344,6.5 6.5,6.5 Z m 3,0 C 9.222656,6.5 9,6.722656 9,7 v 5 c 0,0.277344 0.222656,0.5 0.5,0.5 0.277344,0 0.5,-0.222656 0.5,-0.5 V 7 C 10,6.722656 9.777344,6.5 9.5,6.5 Z" transform="matrix(1.0625,0,0,1.0625,179.5,30.5)"/><path id="path75" fill="#222" d="m 164.9375,30.5 c -0.58936,0 -1.0625,0.473144 -1.0625,1.0625 h -2.125 c -1.74731,0 -3.1875,1.440186 -3.1875,3.1875 v 9.5625 c 0,1.747314 1.44019,3.1875 3.1875,3.1875 h 8.5 c 1.74731,0 3.1875,-1.440186 3.1875,-3.1875 V 34.75 c 0,-1.747314 -1.44019,-3.1875 -3.1875,-3.1875 h -2.125 c 0,-0.589356 -0.47314,-1.0625 -1.0625,-1.0625 z m -3.1875,3.1875 h 1.0625 V 34.75 c 0,0.589356 0.47314,1.0625 1.0625,1.0625 h 4.25 c 0.58936,0 1.0625,-0.473144 1.0625,-1.0625 v -1.0625 h 1.0625 c 0.60595,0 1.0625,0.456543 1.0625,1.0625 v 9.5625 c 0,0.605957 -0.45655,1.0625 -1.0625,1.0625 h -8.5 c -0.60595,0 -1.0625,-0.456543 -1.0625,-1.0625 V 34.75 c 0,-0.605957 0.45655,-1.0625 1.0625,-1.0625 z m 0,0" style="fill:#6272a4;fill-opacity:1;stroke-width:1.0625"/><path id="path76" fill="#2e3436" d="m 135.5,33.6875 c 0,-1.747314 1.44019,-3.1875 3.1875,-3.1875 H 144 c 1.74731,0 3.1875,1.440186 3.1875,3.1875 0,0.585205 -0.4773,1.0625 -1.0625,1.0625 -0.5852,0 -1.0625,-0.477295 -1.0625,-1.0625 0,-0.605957 -0.45655,-1.0625 -1.0625,-1.0625 h -5.3125 c -0.60595,0 -1.0625,0.456543 -1.0625,1.0625 V 39 c 0,0.605957 0.45655,1.0625 1.0625,1.0625 0.5852,0 1.0625,0.477295 1.0625,1.0625 0,0.585205 -0.4773,1.0625 -1.0625,1.0625 C 136.94019,42.1875 135.5,40.747314 135.5,39 Z M 140.8125,39 c 0,-1.747314 1.44019,-3.1875 3.1875,-3.1875 h 5.3125 c 1.74731,0 3.1875,1.440186 3.1875,3.1875 v 5.3125 c 0,1.747314 -1.44019,3.1875 -3.1875,3.1875 H 144 c -1.74731,0 -3.1875,-1.440186 -3.1875,-3.1875 z m 2.125,0 v 5.3125 c 0,0.605957 0.45655,1.0625 1.0625,1.0625 h 5.3125 c 0.60595,0 1.0625,-0.456543 1.0625,-1.0625 V 39 c 0,-0.605957 -0.45655,-1.0625 -1.0625,-1.0625 H 144 c -0.60595,0 -1.0625,0.456543 -1.0625,1.0625 z m 0,0" style="fill:#6272a4;fill-opacity:1;stroke-width:1.0625"/><path id="path77" fill="#2e3436" d="m 126.31959,31.032401 c -0.091,-0.0039 -0.18258,0 -0.27391,0.01663 -0.278,0.05809 -0.52284,0.21996 -0.67647,0.45237 l -2.54822,3.780792 h 2.56483 l 1.74309,-2.593849 c 0.15767,-0.232411 0.21578,-0.518772 0.16188,-0.796833 -0.0538,-0.27806 -0.21582,-0.522921 -0.44825,-0.680627 -0.15354,-0.103753 -0.3362,-0.161858 -0.52296,-0.178455 z m -9.63249,1.062441 c -1.75133,0 -3.18732,1.435956 -3.18732,3.187327 0,1.751364 1.43598,3.18732 3.18732,3.18732 h 3.9883 l -1.68495,2.502548 -0.69311,1.029239 -0.0665,0.103764 c -0.004,0.0039 -0.007,0.0078 -0.007,0.01242 -0.29855,0.485561 -0.47291,1.054134 -0.47291,1.664207 0,1.751369 1.43598,3.187325 3.18733,3.187325 1.75136,0 3.18731,-1.435956 3.18731,-3.187325 0,-1.473307 -1.02097,-2.726655 -2.39046,-3.08357 l 1.50649,-2.228637 h 6.19618 c 0.58513,0 1.06245,-0.477268 1.06245,-1.06244 0,-0.585173 -0.47732,-1.062441 -1.06245,-1.062441 h -9.74453 c 0.11615,-0.332012 0.18255,-0.688927 0.18255,-1.062441 0,-1.751369 -1.43598,-3.187325 -3.18733,-3.187325 z m 0,1.593662 c 0.0538,0 0.10786,0.0039 0.16184,0.0078 0.046,0.0039 0.087,0.01242 0.12868,0.02073 0.0499,0.0078 0.0997,0.01663 0.14522,0.03323 0.53537,0.145256 0.95038,0.560273 1.0957,1.095644 0.0166,0.04567 0.0245,0.09544 0.0331,0.145254 0.008,0.04146 0.0167,0.08303 0.0205,0.128656 v 0.0039 c 0.004,0.04977 0.008,0.103754 0.008,0.157704 0,0.141106 -0.0167,0.273911 -0.0538,0.406716 v 0.01242 c -0.0372,0.132807 -0.0908,0.261461 -0.15771,0.377665 -0.0577,0.09544 -0.12038,0.182607 -0.19092,0.265609 h -0.0126 c -0.30295,0.336164 -0.73042,0.527071 -1.17862,0.531221 -0.14528,0 -0.28222,-0.02073 -0.41499,-0.05399 -0.55203,-0.145255 -0.97948,-0.572725 -1.12476,-1.128843 -0.0334,-0.128635 -0.0539,-0.265589 -0.0539,-0.410843 0,-0.145258 0.0205,-0.282212 0.0538,-0.410867 0.14525,-0.556122 0.57271,-0.983589 1.1247,-1.128844 0.1328,-0.03323 0.2697,-0.05399 0.41502,-0.05399 z m 4.24977,8.499531 c 0.0538,0 0.10787,0.0039 0.16183,0.0078 0.046,0.0039 0.0869,0.01242 0.12869,0.02073 0.0499,0.0078 0.0997,0.01663 0.14522,0.03325 0.53536,0.145254 0.95038,0.560274 1.0957,1.095644 0.0167,0.04567 0.0245,0.09544 0.0331,0.145254 0.008,0.04146 0.0167,0.08302 0.0205,0.128654 v 0.0039 c 0.004,0.0498 0.009,0.103785 0.009,0.157727 0,0.145256 -0.0205,0.282209 -0.0538,0.410867 -0.1453,0.556118 -0.5727,0.983587 -1.12472,1.128844 -0.13288,0.03319 -0.26988,0.05399 -0.4151,0.05399 -0.14529,0 -0.2822,-0.02073 -0.41499,-0.05399 -0.55201,-0.145257 -0.97947,-0.572726 -1.12474,-1.128844 -0.0331,-0.128659 -0.0538,-0.265613 -0.0538,-0.410868 0,-0.02073 0,-0.04146 0.004,-0.05809 0,-0.0039 0.004,-0.0039 0.004,-0.0039 0.0372,-0.763631 0.60597,-1.390305 1.36128,-1.502356 l 0.0126,-0.01663 c 0.0663,-0.0078 0.13682,-0.01242 0.21153,-0.01242 z m 0,0" style="display:inline;opacity:1;fill:#6272a4;fill-opacity:1;stroke-width:1.06245"/></g><g id="layer4"><rect style="font-variation-settings:'opsz' 14,'wght' 460;display:none;opacity:.5;fill:#a46262;fill-opacity:1;stroke-width:.944882;stroke-linecap:round;stroke-linejoin:round" id="rect69" width="20" height="20" x="112" y="29"/><path style="display:inline;fill:#6272a4;fill-opacity:1" id="path70" d="M 6.5,0 C 5.113281,0 4,1.113281 4,2.5 V 3 H 1 C 0.449219,3 0,3.449219 0,4 0,4.550781 0.449219,5 1,5 h 1 v 8 c 0,1.660156 1.339844,3 3,3 h 6 c 1.660156,0 3,-1.339844 3,-3 V 5 h 1 C 15.550781,5 16,4.550781 16,4 16,3.449219 15.550781,3 15,3 H 11.979779 V 2.5 c 0,-1.386719 -1.117188,-2.5 -2.4999996,-2.5 z m 0,2 h 2.9797794 c 0.269531,0 0.5,0.230469 0.5,0.5 V 3 H 6 V 2.5 C 6,2.230469 6.230469,2 6.5,2 Z M 4,5 h 8 v 8 c 0,0.546875 -0.453125,1 -1,1 H 5 C 4.453125,14 4,13.546875 4,13 Z M 6.5,6.5 C 6.222656,6.5 6,6.722656 6,7 v 5 c 0,0.277344 0.222656,0.5 0.5,0.5 C 6.777344,12.5 7,12.277344 7,12 V 7 C 7,6.722656 6.777344,6.5 6.5,6.5 Z m 3,0 C 9.222656,6.5 9,6.722656 9,7 v 5 c 0,0.277344 0.222656,0.5 0.5,0.5 0.277344,0 0.5,-0.222656 0.5,-0.5 V 7 C 10,6.722656 9.777344,6.5 9.5,6.5 Z" transform="matrix(1.0625,0,0,1.0625,179.5,30.5)"/><path id="path1-65" fill="#222" d="m 164.9375,30.5 c -0.58936,0 -1.0625,0.473144 -1.0625,1.0625 h -2.125 c -1.74731,0 -3.1875,1.440186 -3.1875,3.1875 v 9.5625 c 0,1.747314 1.44019,3.1875 3.1875,3.1875 h 8.5 c 1.74731,0 3.1875,-1.440186 3.1875,-3.1875 V 34.75 c 0,-1.747314 -1.44019,-3.1875 -3.1875,-3.1875 h -2.125 c 0,-0.589356 -0.47314,-1.0625 -1.0625,-1.0625 z m -3.1875,3.1875 h 1.0625 V 34.75 c 0,0.589356 0.47314,1.0625 1.0625,1.0625 h 4.25 c 0.58936,0 1.0625,-0.473144 1.0625,-1.0625 v -1.0625 h 1.0625 c 0.60595,0 1.0625,0.456543 1.0625,1.0625 v 9.5625 c 0,0.605957 -0.45655,1.0625 -1.0625,1.0625 h -8.5 c -0.60595,0 -1.0625,-0.456543 -1.0625,-1.0625 V 34.75 c 0,-0.605957 0.45655,-1.0625 1.0625,-1.0625 z m 0,0" style="fill:#6272a4;fill-opacity:1;stroke-width:1.0625"/><path id="path1-5" fill="#2e3436" d="m 135.5,33.6875 c 0,-1.747314 1.44019,-3.1875 3.1875,-3.1875 H 144 c 1.74731,0 3.1875,1.440186 3.1875,3.1875 0,0.585205 -0.4773,1.0625 -1.0625,1.0625 -0.5852,0 -1.0625,-0.477295 -1.0625,-1.0625 0,-0.605957 -0.45655,-1.0625 -1.0625,-1.0625 h -5.3125 c -0.60595,0 -1.0625,0.456543 -1.0625,1.0625 V 39 c 0,0.605957 0.45655,1.0625 1.0625,1.0625 0.5852,0 1.0625,0.477295 1.0625,1.0625 0,0.585205 -0.4773,1.0625 -1.0625,1.0625 C 136.94019,42.1875 135.5,40.747314 135.5,39 Z M 140.8125,39 c 0,-1.747314 1.44019,-3.1875 3.1875,-3.1875 h 5.3125 c 1.74731,0 3.1875,1.440186 3.1875,3.1875 v 5.3125 c 0,1.747314 -1.44019,3.1875 -3.1875,3.1875 H 144 c -1.74731,0 -3.1875,-1.440186 -3.1875,-3.1875 z m 2.125,0 v 5.3125 c 0,0.605957 0.45655,1.0625 1.0625,1.0625 h 5.3125 c 0.60595,0 1.0625,-0.456543 1.0625,-1.0625 V 39 c 0,-0.605957 -0.45655,-1.0625 -1.0625,-1.0625 H 144 c -0.60595,0 -1.0625,0.456543 -1.0625,1.0625 z m 0,0" style="fill:#6272a4;fill-opacity:1;stroke-width:1.0625"/><path id="path1-2" fill="#2e3436" d="m 126.31959,31.032401 c -0.091,-0.0039 -0.18258,0 -0.27391,0.01663 -0.278,0.05809 -0.52284,0.21996 -0.67647,0.45237 l -2.54822,3.780792 h 2.56483 l 1.74309,-2.593849 c 0.15767,-0.232411 0.21578,-0.518772 0.16188,-0.796833 -0.0538,-0.27806 -0.21582,-0.522921 -0.44825,-0.680627 -0.15354,-0.103753 -0.3362,-0.161858 -0.52296,-0.178455 z m -9.63249,1.062441 c -1.75133,0 -3.18732,1.435956 -3.18732,3.187327 0,1.751364 1.43598,3.18732 3.18732,3.18732 h 3.9883 l -1.68495,2.502548 -0.69311,1.029239 -0.0665,0.103764 c -0.004,0.0039 -0.007,0.0078 -0.007,0.01242 -0.29855,0.485561 -0.47291,1.054134 -0.47291,1.664207 0,1.751369 1.43598,3.187325 3.18733,3.187325 1.75136,0 3.18731,-1.435956 3.18731,-3.187325 0,-1.473307 -1.02097,-2.726655 -2.39046,-3.08357 l 1.50649,-2.228637 h 6.19618 c 0.58513,0 1.06245,-0.477268 1.06245,-1.06244 0,-0.585173 -0.47732,-1.062441 -1.06245,-1.062441 h -9.74453 c 0.11615,-0.332012 0.18255,-0.688927 0.18255,-1.062441 0,-1.751369 -1.43598,-3.187325 -3.18733,-3.187325 z m 0,1.593662 c 0.0538,0 0.10786,0.0039 0.16184,0.0078 0.046,0.0039 0.087,0.01242 0.12868,0.02073 0.0499,0.0078 0.0997,0.01663 0.14522,0.03323 0.53537,0.145256 0.95038,0.560273 1.0957,1.095644 0.0166,0.04567 0.0245,0.09544 0.0331,0.145254 0.008,0.04146 0.0167,0.08303 0.0205,0.128656 v 0.0039 c 0.004,0.04977 0.008,0.103754 0.008,0.157704 0,0.141106 -0.0167,0.273911 -0.0538,0.406716 v 0.01242 c -0.0372,0.132807 -0.0908,0.261461 -0.15771,0.377665 -0.0577,0.09544 -0.12038,0.182607 -0.19092,0.265609 h -0.0126 c -0.30295,0.336164 -0.73042,0.527071 -1.17862,0.531221 -0.14528,0 -0.28222,-0.02073 -0.41499,-0.05399 -0.55203,-0.145255 -0.97948,-0.572725 -1.12476,-1.128843 -0.0334,-0.128635 -0.0539,-0.265589 -0.0539,-0.410843 0,-0.145258 0.0205,-0.282212 0.0538,-0.410867 0.14525,-0.556122 0.57271,-0.983589 1.1247,-1.128844 0.1328,-0.03323 0.2697,-0.05399 0.41502,-0.05399 z m 4.24977,8.499531 c 0.0538,0 0.10787,0.0039 0.16183,0.0078 0.046,0.0039 0.0869,0.01242 0.12869,0.02073 0.0499,0.0078 0.0997,0.01663 0.14522,0.03325 0.53536,0.145254 0.95038,0.560274 1.0957,1.095644 0.0167,0.04567 0.0245,0.09544 0.0331,0.145254 0.008,0.04146 0.0167,0.08302 0.0205,0.128654 v 0.0039 c 0.004,0.0498 0.009,0.103785 0.009,0.157727 0,0.145256 -0.0205,0.282209 -0.0538,0.410867 -0.1453,0.556118 -0.5727,0.983587 -1.12472,1.128844 -0.13288,0.03319 -0.26988,0.05399 -0.4151,0.05399 -0.14529,0 -0.2822,-0.02073 -0.41499,-0.05399 -0.55201,-0.145257 -0.97947,-0.572726 -1.12474,-1.128844 -0.0331,-0.128659 -0.0538,-0.265613 -0.0538,-0.410868 0,-0.02073 0,-0.04146 0.004,-0.05809 0,-0.0039 0.004,-0.0039 0.004,-0.0039 0.0372,-0.763631 0.60597,-1.390305 1.36128,-1.502356 l 0.0126,-0.01663 c 0.0663,-0.0078 0.13682,-0.01242 0.21153,-0.01242 z m 0,0" style="display:inline;opacity:1;fill:#6272a4;fill-opacity:1;stroke-width:1.06245"/></g><g id="g69" style="opacity:.5;fill:#6272a4;fill-opacity:1"><rect style="font-variation-settings:'opsz' 14,'wght' 460;display:none;opacity:.5;fill:#a46262;fill-opacity:1;stroke-width:.944882;stroke-linecap:round;stroke-linejoin:round" id="rect66" width="26" height="24" x="0" y="58"/><path id="path66" fill="#2e3436" d="m 99.999999,64 c 0.265621,0 0.519531,0.105469 0.707031,0.292969 l 4,4 c 0.39063,0.390625 0.39063,1.023437 0,1.414062 l -4,4 c -0.39062,0.390625 -1.023441,0.390625 -1.414061,0 -0.390626,-0.390625 -0.390626,-1.023437 0,-1.414062 L 101.58594,70 h -8.585941 c -1.117188,0 -2,0.882812 -2,2 0,1.117188 0.882812,2 2,2 0.550781,0 1,0.449219 1,1 0,0.550781 -0.449219,1 -1,1 -2.195312,0 -4,-1.800781 -4,-4 0,-2.199219 1.804688,-4 4,-4 h 8.585941 l -2.292971,-2.292969 c -0.390626,-0.390625 -0.390626,-1.023437 0,-1.414062 C 99.480469,64.105469 99.734369,64 99.999999,64 Z m 0,0" style="fill:#6272a4;fill-opacity:1"/><path id="path67" fill="#2e3436" d="m 66,64 c -0.265625,0 -0.519531,0.105469 -0.707031,0.292969 l -4,4 c -0.390625,0.390625 -0.390625,1.023437 0,1.414062 l 4,4 c 0.390625,0.390625 1.023437,0.390625 1.414062,0 0.390625,-0.390625 0.390625,-1.023437 0,-1.414062 L 64.414062,70 H 73 c 1.117188,0 2,0.882812 2,2 0,1.117188 -0.882812,2 -2,2 -0.550781,0 -1,0.449219 -1,1 0,0.550781 0.449219,1 1,1 2.199219,0 4,-1.800781 4,-4 0,-2.199219 -1.800781,-4 -4,-4 h -8.585938 l 2.292969,-2.292969 c 0.390625,-0.390625 0.390625,-1.023437 0,-1.414062 C 66.519531,64.105469 66.265625,64 66,64 Z m 0,0" style="fill:#6272a4;fill-opacity:1"/><path style="fill:#6272a4;fill-opacity:1;stroke-width:1.42827" id="path68" d="m 32.427925,65 c -0.396124,0 -0.713962,0.320108 -0.713962,0.716229 v 8.567541 c 0,0.396124 0.317838,0.71623 0.713962,0.71623 0.396123,0 0.713963,-0.320106 0.713963,-0.71623 v -8.567542 c 0,-0.396122 -0.31784,-0.716229 -0.713963,-0.716228 z m 17.14415,0 c -0.396122,0 -0.713962,0.320107 -0.713963,0.716229 v 8.567541 c 0,0.396124 0.317841,0.71623 0.713963,0.71623 0.396124,0 0.713962,-0.320106 0.713962,-0.71623 V 65.716228 C 50.286037,65.320108 49.968199,65 49.572075,65 Z m -14.28377,1.430191 c -0.396122,0 -0.713962,0.317841 -0.713962,0.71396 v 5.711695 c 0,0.396123 0.31784,0.713963 0.713962,0.713963 0.396124,0 0.713962,-0.31784 0.713962,-0.713963 v -5.711695 c 0,-0.396122 -0.317838,-0.71396 -0.713962,-0.71396 z m 11.42339,0 c -0.396124,0 -0.713962,0.317837 -0.713962,0.71396 v 5.711695 c 0,0.396123 0.317838,0.713963 0.713962,0.713963 0.396122,0 0.713962,-0.317841 0.713962,-0.713963 v -5.711695 c 0,-0.396119 -0.31784,-0.71396 -0.713962,-0.71396 z m -8.603807,2.141885 c -0.373804,0.01674 -0.675432,0.328998 -0.675432,0.713963 v 1.427922 c 0,0.396122 0.31784,0.713963 0.713963,0.713963 0.396123,0 0.713962,-0.317841 0.713962,-0.713963 v -1.427922 c 0,-0.396122 -0.317839,-0.713963 -0.713962,-0.713963 z m 2.844514,0 c -0.373803,0.01674 -0.67543,0.328998 -0.67543,0.713963 v 1.427922 c 0,0.396122 0.31784,0.713963 0.713963,0.713963 0.396123,0 0.713962,-0.317841 0.713962,-0.713963 v -1.427922 c 0,-0.396122 -0.317839,-0.713963 -0.713962,-0.713963 z m 2.858114,0 c -0.373803,0.01674 -0.67543,0.328998 -0.67543,0.713963 v 1.427922 c 0,0.396122 0.317839,0.713963 0.713962,0.713963 0.396123,0 0.713963,-0.317841 0.713963,-0.713963 v -1.427922 c 0,-0.396122 -0.31784,-0.713963 -0.713963,-0.713963 z"/><path style="fill:#6272a4;fill-opacity:1;stroke-width:1.42825" id="path69" d="m 12.995466,65 c -0.396115,0 -0.714123,0.320277 -0.714124,0.716391 v 8.567218 c 0,0.396116 0.318009,0.716391 0.714124,0.716391 0.396117,0 0.714123,-0.320275 0.714123,-0.716391 v -8.567218 c 0,-0.396114 -0.318006,-0.71639 -0.714123,-0.716391 z m -2.858761,1.430515 c -0.396117,0 -0.714125,0.31801 -0.714125,0.714123 v 5.710724 c 0,0.396115 0.318008,0.714123 0.714125,0.714122 0.396116,0 0.714122,-0.318007 0.714122,-0.714122 v -5.710724 c 0,-0.396115 -0.318006,-0.714123 -0.714122,-0.714123 z m 5.715256,0 c -0.396117,0 -0.714124,0.318008 -0.714124,0.714123 v 5.710724 c 0,0.396115 0.318007,0.714123 0.714124,0.714122 0.396114,0 0.714122,-0.318008 0.714123,-0.714122 v -5.710724 c 0,-0.396113 -0.318009,-0.714123 -0.714123,-0.714123 z M 4.3919746,68.572886 C 4.0181775,68.589623 3.7163909,68.90205 3.716391,69.287009 v 1.425981 c 0,0.396115 0.3180069,0.714124 0.7141237,0.714124 0.3961163,0 0.7141238,-0.318009 0.7141238,-0.714124 v -1.425981 c 0,-0.396115 -0.3180075,-0.714123 -0.7141238,-0.714123 z m 2.8587623,0 c -0.3737971,0.01673 -0.675584,0.329164 -0.6755839,0.714123 v 1.425981 c 0,0.396115 0.318007,0.714124 0.7141238,0.714124 0.3961163,0 0.7141239,-0.318009 0.7141239,-0.714124 v -1.425981 c 0,-0.396115 -0.3180076,-0.714123 -0.7141239,-0.714123 z m 11.4237141,0 c -0.373799,0.01673 -0.675584,0.329164 -0.675585,0.714123 v 1.425981 c 0,0.396115 0.318009,0.714124 0.714124,0.714124 0.396115,0 0.714122,-0.318009 0.714124,-0.714124 v -1.425981 c 0,-0.396115 -0.318009,-0.714123 -0.714124,-0.714123 z m 2.856494,0 c -0.373797,0.01673 -0.675583,0.329164 -0.675583,0.714123 v 1.425981 c 0,0.396115 0.318006,0.714124 0.714122,0.714124 0.396117,0 0.714124,-0.318009 0.714125,-0.714124 v -1.425981 c 0,-0.396115 -0.318008,-0.714123 -0.714125,-0.714123 z"/></g><g id="layer3"><rect style="font-variation-settings:'opsz' 14,'wght' 460;display:none;opacity:.5;fill:#a46262;fill-opacity:1;stroke-width:.944882;stroke-linecap:round;stroke-linejoin:round" id="rect65" width="26" height="24" x="84" y="29"/><path id="path1-0" fill="#2e3436" d="m 99.999999,35 c 0.265621,0 0.519531,0.105469 0.707031,0.292969 l 4,4 c 0.39063,0.390625 0.39063,1.023437 0,1.414062 l -4,4 c -0.39062,0.390625 -1.023441,0.390625 -1.414061,0 -0.390626,-0.390625 -0.390626,-1.023437 0,-1.414062 L 101.58594,41 h -8.585941 c -1.117188,0 -2,0.882812 -2,2 0,1.117188 0.882812,2 2,2 0.550781,0 1,0.449219 1,1 0,0.550781 -0.449219,1 -1,1 -2.195312,0 -4,-1.800781 -4,-4 0,-2.199219 1.804688,-4 4,-4 h 8.585941 l -2.292971,-2.292969 c -0.390626,-0.390625 -0.390626,-1.023437 0,-1.414062 C 99.480469,35.105469 99.734369,35 99.999999,35 Z m 0,0" style="fill:#6272a4;fill-opacity:1"/><path id="path1-8" fill="#2e3436" d="m 66,35 c -0.265625,0 -0.519531,0.105469 -0.707031,0.292969 l -4,4 c -0.390625,0.390625 -0.390625,1.023437 0,1.414062 l 4,4 c 0.390625,0.390625 1.023437,0.390625 1.414062,0 0.390625,-0.390625 0.390625,-1.023437 0,-1.414062 L 64.414062,41 H 73 c 1.117188,0 2,0.882812 2,2 0,1.117188 -0.882812,2 -2,2 -0.550781,0 -1,0.449219 -1,1 0,0.550781 0.449219,1 1,1 2.199219,0 4,-1.800781 4,-4 0,-2.199219 -1.800781,-4 -4,-4 h -8.585938 l 2.292969,-2.292969 c 0.390625,-0.390625 0.390625,-1.023437 0,-1.414062 C 66.519531,35.105469 66.265625,35 66,35 Z m 0,0" style="fill:#6272a4;fill-opacity:1"/><path style="fill:#6272a4;stroke-width:1.42827" id="path46" d="m 32.427925,36 c -0.396124,0 -0.713962,0.320108 -0.713962,0.716229 v 8.567541 c 0,0.396124 0.317838,0.71623 0.713962,0.71623 0.396123,0 0.713963,-0.320106 0.713963,-0.71623 v -8.567542 c 0,-0.396122 -0.31784,-0.716229 -0.713963,-0.716228 z m 17.14415,0 c -0.396122,0 -0.713962,0.320107 -0.713963,0.716229 v 8.567541 c 0,0.396124 0.317841,0.71623 0.713963,0.71623 0.396124,0 0.713962,-0.320106 0.713962,-0.71623 V 36.716228 C 50.286037,36.320108 49.968199,36 49.572075,36 Z m -14.28377,1.430191 c -0.396122,0 -0.713962,0.317841 -0.713962,0.71396 v 5.711695 c 0,0.396123 0.31784,0.713963 0.713962,0.713963 0.396124,0 0.713962,-0.31784 0.713962,-0.713963 v -5.711695 c 0,-0.396122 -0.317838,-0.71396 -0.713962,-0.71396 z m 11.42339,0 c -0.396124,0 -0.713962,0.317837 -0.713962,0.71396 v 5.711695 c 0,0.396123 0.317838,0.713963 0.713962,0.713963 0.396122,0 0.713962,-0.317841 0.713962,-0.713963 v -5.711695 c 0,-0.396119 -0.31784,-0.71396 -0.713962,-0.71396 z m -8.603807,2.141885 c -0.373804,0.01674 -0.675432,0.328998 -0.675432,0.713963 v 1.427922 c 0,0.396122 0.31784,0.713963 0.713963,0.713963 0.396123,0 0.713962,-0.317841 0.713962,-0.713963 v -1.427922 c 0,-0.396122 -0.317839,-0.713963 -0.713962,-0.713963 z m 2.844514,0 c -0.373803,0.01674 -0.67543,0.328998 -0.67543,0.713963 v 1.427922 c 0,0.396122 0.31784,0.713963 0.713963,0.713963 0.396123,0 0.713962,-0.317841 0.713962,-0.713963 v -1.427922 c 0,-0.396122 -0.317839,-0.713963 -0.713962,-0.713963 z m 2.858114,0 c -0.373803,0.01674 -0.67543,0.328998 -0.67543,0.713963 v 1.427922 c 0,0.396122 0.317839,0.713963 0.713962,0.713963 0.396123,0 0.713963,-0.317841 0.713963,-0.713963 v -1.427922 c 0,-0.396122 -0.31784,-0.713963 -0.713963,-0.713963 z"/><path style="fill:#6272a4;stroke-width:1.42825" id="path64" d="m 12.995466,36 c -0.396115,0 -0.714123,0.320277 -0.714124,0.716391 v 8.567218 c 0,0.396116 0.318009,0.716391 0.714124,0.716391 0.396117,0 0.714123,-0.320275 0.714123,-0.716391 v -8.567218 c 0,-0.396114 -0.318006,-0.71639 -0.714123,-0.716391 z m -2.858761,1.430515 c -0.396117,0 -0.714125,0.31801 -0.714125,0.714123 v 5.710724 c 0,0.396115 0.318008,0.714123 0.714125,0.714122 0.396116,0 0.714122,-0.318007 0.714122,-0.714122 v -5.710724 c 0,-0.396115 -0.318006,-0.714123 -0.714122,-0.714123 z m 5.715256,0 c -0.396117,0 -0.714124,0.318008 -0.714124,0.714123 v 5.710724 c 0,0.396115 0.318007,0.714123 0.714124,0.714122 0.396114,0 0.714122,-0.318008 0.714123,-0.714122 v -5.710724 c 0,-0.396113 -0.318009,-0.714123 -0.714123,-0.714123 z M 4.3919746,39.572886 C 4.0181775,39.589623 3.7163909,39.90205 3.716391,40.287009 v 1.425981 c 0,0.396115 0.3180069,0.714124 0.7141237,0.714124 0.3961163,0 0.7141238,-0.318009 0.7141238,-0.714124 v -1.425981 c 0,-0.396115 -0.3180075,-0.714123 -0.7141238,-0.714123 z m 2.8587623,0 c -0.3737971,0.01673 -0.675584,0.329164 -0.6755839,0.714123 v 1.425981 c 0,0.396115 0.318007,0.714124 0.7141238,0.714124 0.3961163,0 0.7141239,-0.318009 0.7141239,-0.714124 v -1.425981 c 0,-0.396115 -0.3180076,-0.714123 -0.7141239,-0.714123 z m 11.4237141,0 c -0.373799,0.01673 -0.675584,0.329164 -0.675585,0.714123 v 1.425981 c 0,0.396115 0.318009,0.714124 0.714124,0.714124 0.396115,0 0.714122,-0.318009 0.714124,-0.714124 v -1.425981 c 0,-0.396115 -0.318009,-0.714123 -0.714124,-0.714123 z m 2.856494,0 c -0.373797,0.01673 -0.675583,0.329164 -0.675583,0.714123 v 1.425981 c 0,0.396115 0.318006,0.714124 0.714122,0.714124 0.396117,0 0.714124,-0.318009 0.714125,-0.714124 v -1.425981 c 0,-0.396115 -0.318008,-0.714123 -0.714125,-0.714123 z"/></g><g id="layer2"><rect style="font-variation-settings:'opsz' 14,'wght' 460;display:none;opacity:.5;fill:#a46262;fill-opacity:1;stroke-width:.944882;stroke-linecap:round;stroke-linejoin:round" id="rect64" width="25" height="25" x="27" y="0"/><path id="path1-6" fill="#2e3436" d="m 40.830295,3.1749012 c -0.395704,-0.00526 -0.770582,0.1666125 -1.0205,0.4685992 L 35.498699,8.4960847 H 34.165798 C 32.70794,8.4960847 31.5,9.6207207 31.5,11.161886 v 2.665798 c 0,1.452654 1.213147,2.6658 2.665798,2.6658 h 1.332901 l 4.311096,4.852587 c 0.275952,0.338431 0.650829,0.484216 1.0205,0.479011 z m 3.941424,3.9778735 c -0.265537,0.01038 -0.525868,0.09893 -0.749752,0.265539 -0.588351,0.442564 -0.708105,1.280834 -0.260334,1.869181 1.431826,1.9004253 1.431826,4.5141573 0,6.4197853 -0.447771,0.588351 -0.328017,1.421413 0.260334,1.863979 0.588351,0.442563 1.42141,0.328019 1.869182,-0.260332 C 46.95851,15.884307 47.5,14.192149 47.5,12.494785 c 0,-1.697363 -0.54149,-3.3895203 -1.608851,-4.8109323 -0.249918,-0.333227 -0.624796,-0.515459 -1.010089,-0.531078 -0.03644,-0.0053 -0.07291,-0.0053 -0.109326,0 z m 0,0" style="fill:#6272a4;fill-opacity:1;stroke-width:1.33292"/><path id="path1" fill="#2e3436" d="M 12.5,4 C 10.736084,4 9.3125001,5.4235842 9.3125001,7.1875001 V 12.5 c 0,1.763916 1.4235839,3.187501 3.1874999,3.187501 1.763917,0 3.1875,-1.423585 3.1875,-3.187501 V 7.1875001 C 15.6875,5.4235842 14.263917,4 12.5,4 Z m -6.375,6.375 v 2.137451 c 0,3.150146 2.2993159,5.769043 5.3125,6.275392 V 21 h 2.125 v -2.212157 c 3.013184,-0.506349 5.3125,-3.125246 5.3125,-6.275392 V 10.375 h -1.59375 v 2.137451 c 0,2.65625 -2.1167,4.7688 -4.78125,4.7688 -2.6645499,0 -4.78125,-2.11255 -4.78125,-4.7688 V 10.375 Z m 0,0" style="display:inline;opacity:1;mix-blend-mode:normal;fill:#6272a4;fill-opacity:1;stroke-width:1.0625"/></g></svg>